<?xml version="1.0" standalone="no"?>
<!DOCTYPE svg PUBLIC "-//W3C//DTD SVG 20010904//EN"
 "http://www.w3.org/TR/2001/REC-SVG-20010904/DTD/svg10.dtd">
<svg version="1.0" xmlns="http://www.w3.org/2000/svg"
 width="1024.000000pt" height="1024.000000pt" viewBox="0 0 1024.000000 1024.000000"
 preserveAspectRatio="xMidYMid meet">
<metadata>
Created by potrace 1.11, written by Peter Selinger 2001-2013
</metadata>
<g transform="translate(0.000000,1024.000000) scale(0.100000,-0.100000)"
fill="#000000" stroke="none">
<path d="M5042 9899 c-141 -70 -242 -330 -242 -624 0 -146 30 -297 85 -427 5
-13 0 -18 -27 -22 -87 -12 -166 -27 -200 -36 l-38 -11 0 -160 c0 -148 1 -160
18 -155 57 16 279 30 482 30 203 0 425 -14 483 -30 16 -5 17 7 17 155 l0 160
-37 11 c-35 9 -114 24 -201 36 -27 4 -32 9 -27 22 55 130 85 281 85 427 0 294
-102 556 -243 624 -55 27 -101 27 -155 0z"/>
<path d="M1817 8561 c-170 -34 -190 -249 -47 -492 116 -195 339 -397 513 -464
26 -10 47 -20 47 -23 0 -3 -19 -31 -43 -61 -24 -31 -58 -80 -76 -110 l-33 -54
114 -113 113 -114 75 98 c97 126 396 425 527 527 l102 80 -113 114 -113 113
-59 -37 c-33 -20 -82 -55 -110 -76 -28 -22 -53 -39 -56 -39 -3 0 -13 21 -23
48 -55 142 -203 322 -365 444 -161 121 -336 182 -453 159z"/>
<path d="M8291 8559 c-75 -13 -230 -88 -321 -156 -160 -120 -311 -304 -365
-445 -10 -27 -20 -48 -24 -48 -3 1 -35 23 -71 50 -35 27 -85 60 -110 74 l-46
25 -112 -112 -111 -112 102 -80 c131 -103 420 -391 522 -522 l80 -102 114 113
113 113 -37 59 c-20 33 -55 82 -76 110 -22 28 -39 53 -39 56 0 3 21 13 48 23
189 73 432 304 535 510 55 109 70 162 71 245 0 77 -9 106 -48 148 -44 50 -126
68 -225 51z"/>
<path d="M4925 8134 c-428 -34 -788 -132 -1155 -316 -1187 -592 -1845 -1882
-1629 -3193 148 -898 691 -1674 1494 -2135 430 -248 972 -390 1485 -390 1006
0 1947 502 2509 1340 474 707 628 1590 420 2414 -217 860 -787 1569 -1579
1964 -319 160 -620 251 -975 297 -116 16 -468 27 -570 19z m282 -236 c38 -26
73 -90 73 -133 0 -45 -38 -112 -76 -136 -78 -48 -184 -17 -223 65 -26 53 -26
89 -1 140 29 59 72 86 139 86 40 0 64 -6 88 -22z m243 -563 c387 -60 756 -220
1064 -462 91 -72 287 -268 359 -359 244 -311 402 -675 463 -1074 25 -159 25
-481 0 -640 -74 -479 -278 -893 -609 -1237 -341 -354 -783 -582 -1282 -660
-153 -24 -497 -24 -650 0 -803 126 -1463 651 -1759 1397 -103 261 -150 518
-150 820 0 302 47 559 150 820 310 782 1027 1323 1869 1410 123 12 417 4 545
-15z m-2136 -199 c18 -8 45 -29 60 -48 51 -68 47 -145 -12 -207 -64 -67 -157
-68 -223 -2 -124 124 13 325 175 257z m3764 -13 c51 -38 67 -70 67 -133 0 -44
-5 -66 -21 -86 -32 -44 -68 -66 -116 -71 -58 -7 -108 15 -144 63 -24 31 -29
47 -29 94 0 99 70 164 168 157 27 -3 60 -13 75 -24z m-4534 -1863 c57 -27 87
-75 88 -138 0 -90 -54 -151 -142 -160 -150 -14 -229 172 -117 276 46 44 110
52 171 22z m5290 0 c62 -31 81 -63 81 -140 0 -77 -19 -109 -81 -140 -51 -25
-87 -25 -138 0 -58 28 -86 73 -86 140 0 66 27 111 85 140 51 25 88 25 139 0z
m-4496 -1877 c51 -38 67 -70 67 -133 0 -63 -16 -95 -69 -134 -39 -29 -133 -29
-173 0 -33 24 -73 97 -73 134 0 45 42 113 85 138 48 28 122 26 163 -5z m3748
-8 c113 -86 64 -266 -78 -282 -58 -7 -108 15 -144 63 -24 31 -29 47 -29 94 0
46 5 63 27 92 56 74 152 88 224 33z m-1879 -767 c38 -26 73 -90 73 -133 0 -16
-9 -48 -21 -71 -56 -117 -222 -117 -278 0 -26 53 -26 89 -1 140 29 59 72 86
139 86 40 0 64 -6 88 -22z"/>
<path d="M4925 6989 c-134 -14 -125 -6 -125 -108 l0 -89 45 -50 c24 -27 59
-55 76 -62 l32 -14 -7 -135 c-7 -135 -29 -438 -42 -560 -6 -59 -5 -64 11 -57
10 3 60 12 111 18 91 12 246 2 299 -18 16 -7 17 -2 11 62 -13 143 -35 434 -42
560 l-7 130 32 14 c17 7 52 35 76 62 l45 50 0 88 c0 103 11 95 -139 110 -117
11 -259 11 -376 -1z"/>
<path d="M3950 6593 c-108 -85 -218 -195 -303 -303 l-67 -85 65 -65 65 -65 78
0 c42 0 89 4 103 8 25 8 35 -1 169 -155 78 -90 188 -218 243 -284 l101 -121
39 56 c54 78 130 154 208 210 l66 47 -131 109 c-72 61 -200 170 -284 244 -143
125 -153 136 -145 160 4 14 8 61 8 103 l0 78 -65 65 -65 65 -85 -67z"/>
<path d="M6139 6594 l-64 -64 0 -78 c0 -42 4 -89 8 -103 8 -25 -1 -35 -155
-169 -90 -79 -217 -188 -284 -243 l-121 -101 66 -47 c78 -56 154 -132 208
-210 l39 -57 63 77 c35 42 144 170 243 284 170 196 182 208 207 200 14 -4 61
-8 103 -8 l78 0 64 64 65 65 -30 40 c-96 132 -252 288 -385 385 l-40 30 -65
-65z"/>
<path d="M5000 5563 c-315 -86 -441 -456 -246 -721 49 -66 138 -130 218 -159
73 -25 223 -25 296 0 125 44 234 150 283 275 19 46 23 77 23 162 0 85 -4 116
-23 162 -49 127 -164 237 -285 274 -80 24 -190 27 -266 7z"/>
<path d="M3265 5428 c-24 -74 -31 -383 -12 -533 l12 -90 91 -3 92 -3 56 52
c31 28 59 62 62 75 6 21 12 24 58 24 57 0 218 -11 509 -36 104 -9 190 -15 191
-13 2 2 -2 38 -10 79 -17 95 -17 185 0 280 8 41 13 76 12 77 -1 1 -98 -6 -216
-17 -118 -10 -269 -21 -335 -25 -66 -3 -137 -8 -158 -11 -35 -5 -38 -4 -52 29
-8 19 -38 56 -67 81 l-53 46 -88 0 c-61 0 -89 -4 -92 -12z"/>
<path d="M6747 5399 c-26 -23 -56 -58 -67 -79 l-19 -38 -63 4 c-188 12 -609
45 -647 50 -39 6 -43 5 -37 -11 3 -10 12 -60 18 -111 12 -91 2 -246 -18 -299
-7 -16 -2 -17 62 -11 143 13 434 35 560 42 l130 7 14 -32 c7 -17 35 -52 63
-77 l50 -45 91 3 91 3 12 90 c6 50 11 151 11 225 0 74 -5 176 -11 225 l-12 90
-90 3 -90 2 -48 -41z"/>
<path d="M4207 4483 c-107 -126 -217 -252 -244 -282 l-49 -54 -38 13 c-25 8
-62 10 -105 6 -64 -6 -67 -7 -128 -69 l-63 -62 67 -85 c85 -108 195 -218 303
-303 l85 -67 65 65 65 65 0 83 c-1 45 -4 91 -9 102 -6 18 15 40 142 152 83 72
211 182 285 244 l135 112 -56 40 c-77 52 -154 129 -209 205 -25 34 -46 62 -48
62 -2 0 -91 -102 -198 -227z"/>
<path d="M5787 4648 c-55 -76 -132 -153 -209 -206 l-57 -39 73 -59 c41 -33
169 -142 286 -243 199 -173 211 -185 203 -210 -4 -14 -8 -61 -8 -103 l0 -78
65 -65 65 -65 85 67 c108 85 218 195 303 303 l67 85 -64 64 -65 64 -78 1 c-43
1 -90 -3 -104 -7 -25 -8 -35 1 -169 155 -78 90 -186 216 -239 280 -53 64 -99
117 -103 117 -3 1 -26 -27 -51 -61z"/>
<path d="M4900 4313 c0 -10 9 -119 19 -243 11 -124 23 -286 27 -361 l7 -135
-32 -14 c-17 -7 -52 -35 -77 -63 l-45 -50 3 -91 3 -91 90 -12 c50 -6 151 -11
225 -11 74 0 176 5 225 11 l90 12 3 91 3 91 -45 50 c-25 28 -59 56 -76 63 -29
12 -30 15 -30 74 0 60 34 524 46 640 7 55 6 58 -14 52 -101 -32 -302 -33 -403
-1 -14 5 -19 1 -19 -12z"/>
<path d="M1456 5603 c-17 -61 -27 -110 -35 -173 -5 -39 -12 -74 -14 -77 -3 -2
-27 5 -54 16 -232 97 -615 86 -841 -25 -173 -85 -234 -215 -154 -329 87 -124
291 -202 556 -212 156 -7 265 7 398 52 l97 32 6 -46 c8 -57 23 -134 36 -183
l10 -38 160 0 c148 0 160 1 155 18 -31 108 -40 652 -14 860 7 62 12 115 9 117
-2 3 -73 5 -157 5 -137 0 -153 -2 -158 -17z"/>
<path d="M8464 5603 c16 -57 30 -279 30 -483 0 -204 -14 -426 -30 -482 -5 -17
7 -18 155 -18 l160 0 11 40 c23 89 29 117 35 173 6 49 9 57 23 51 130 -54 281
-84 427 -84 294 0 556 102 624 243 93 192 -163 370 -564 393 -166 9 -345 -21
-486 -80 -13 -6 -18 9 -32 91 -9 54 -21 115 -27 136 l-11 37 -160 0 c-148 0
-160 -1 -155 -17z"/>
<path d="M2293 2998 l-113 -113 36 -60 c20 -33 54 -82 75 -109 22 -27 39 -52
39 -55 0 -4 -24 -17 -54 -30 -90 -37 -226 -134 -319 -228 -194 -194 -307 -431
-276 -581 39 -191 273 -197 546 -16 92 61 224 187 296 281 48 63 127 206 127
230 0 21 15 15 64 -25 26 -21 75 -55 109 -75 l62 -37 112 112 113 113 -27 20
c-197 143 -518 464 -658 658 l-20 27 -112 -112z"/>
<path d="M7755 3008 c-143 -182 -422 -456 -578 -568 l-48 -34 114 -114 114
-114 59 37 c33 20 82 55 110 76 28 22 53 39 56 39 3 0 13 -21 23 -47 38 -100
122 -219 231 -327 311 -312 670 -377 725 -132 49 222 -227 618 -545 781 -45
23 -88 44 -96 47 -12 4 -6 17 26 59 23 30 59 80 79 113 l37 59 -113 113 -114
113 -80 -101z"/>
<path d="M4620 1618 l0 -157 43 -11 c86 -23 113 -28 170 -35 49 -6 57 -9 51
-23 -104 -249 -111 -582 -17 -822 108 -276 306 -329 444 -120 77 117 117 263
126 465 8 176 -18 326 -81 477 -6 14 2 17 51 23 56 6 84 12 173 35 l40 11 0
157 0 158 -107 -15 c-74 -9 -199 -14 -393 -14 -194 0 -319 5 -392 14 l-108 15
0 -158z"/>
</g>
</svg>
