<?xml version="1.0" encoding="UTF-8" standalone="no"?>
<!-- Generator: Adobe Illustrator 24.2.3, SVG Export Plug-In . SVG Version: 6.00 Build 0)  -->

<svg
   xmlns:dc="http://purl.org/dc/elements/1.1/"
   xmlns:cc="http://creativecommons.org/ns#"
   xmlns:rdf="http://www.w3.org/1999/02/22-rdf-syntax-ns#"
   xmlns:svg="http://www.w3.org/2000/svg"
   xmlns="http://www.w3.org/2000/svg"
   xmlns:sodipodi="http://sodipodi.sourceforge.net/DTD/sodipodi-0.dtd"
   xmlns:inkscape="http://www.inkscape.org/namespaces/inkscape"
   version="1.1"
   id="logo"
   x="0px"
   y="0px"
   viewBox="0 0 759.99999 439.99998"
   xml:space="preserve"
   sodipodi:docname="Industria-logo-screen.svg"
   width="760"
   height="440"
   inkscape:version="0.92.5 (2060ec1f9f, 2020-04-08)"><metadata
   id="metadata206"><rdf:RDF><cc:Work
       rdf:about=""><dc:format>image/svg+xml</dc:format><dc:type
         rdf:resource="http://purl.org/dc/dcmitype/StillImage" /><dc:title /></cc:Work></rdf:RDF></metadata><defs
   id="defs204">
	
	
	
	
	
	
	
	
	
	
	

	
	
	
	
	
	
	
	
	
	
	

	
	
	
	

	
	
	
	

	
	
	
	

	
	
	
	

	
	
	
	

	
	
	
	

	
	
	
	

	
	
	
	

	
	
	
	

	
	
	
	

	

	
	
	
	
	
	
	
	
	
	
	
	
	
	
	

	

	

	
</defs><sodipodi:namedview
   pagecolor="#ffffff"
   bordercolor="#666666"
   borderopacity="1"
   objecttolerance="10"
   gridtolerance="10"
   guidetolerance="10"
   inkscape:pageopacity="0"
   inkscape:pageshadow="2"
   inkscape:window-width="1920"
   inkscape:window-height="1016"
   id="namedview202"
   showgrid="false"
   inkscape:zoom="2.0014493"
   inkscape:cx="338.78928"
   inkscape:cy="193.51448"
   inkscape:window-x="0"
   inkscape:window-y="27"
   inkscape:window-maximized="1"
   inkscape:current-layer="logo" />
<style
   type="text/css"
   id="style2">
	.st0{opacity:0.71;}
	.st1{opacity:0.88;fill:#006E9D;}
	.st2{opacity:0.8;}
	.st3{opacity:0.8;fill:#006E9D;}
	.st4{opacity:0.88;}
	.st5{fill:#8EB9CC;stroke:#8EB9CC;stroke-width:0.17;stroke-miterlimit:10;}
	.st6{opacity:0.62;fill:#8EB9CC;}
	.st7{opacity:0.66;fill:#8EB9CC;}
	.st8{opacity:0.8;fill:#8EB9CC;}
	.st9{opacity:0.88;fill:#8EB9CC;}
	.st10{fill:none;}
	.st11{opacity:0.71;fill:#8EB9CC;}
	.st12{opacity:0.62;}
	.st13{fill:#8EB9CC;stroke:#8EB9CC;stroke-width:3;stroke-linecap:round;stroke-miterlimit:10;}
	.st14{fill:#8EB9CC;stroke:#8EB9CC;stroke-width:0;stroke-miterlimit:10;}
</style>
<path
   style="opacity:0.625;fill:#006e9d"
   inkscape:connector-curvature="0"
   id="path4"
   d="m 425.045,159.08 c 0,2.2 -0.46,4.29 -1.16,6.15 -4.18,13.69 -18.56,21.34 -34.1,21.34 -13.11,-0.23 -21.81,-8.93 -21.81,-18.21 0,-4.87 1.86,-11.83 11.02,-14.85 -17.17,6.61 -9.86,29.58 8.58,29.58 8.47,0 15.66,-2.78 20.76,-6.38 -0.93,0.12 -1.74,0.12 -2.67,0.12 -9.51,0 -17.4,-6.84 -19.02,-15.89 -0.23,-1.16 -0.35,-2.32 -0.35,-3.6 v -1.97 c 0,0 -0.23,-5.92 -3.48,-7.54 5.57,0 8.12,4.52 15.08,4.52 -3.71,2.78 -3.48,8.47 -3.48,8.47 v 0.12 c 0,7.19 5.1,12.99 11.25,12.99 6.26,0 11.37,-5.92 11.37,-13.11 0,-6.84 -4.18,-12.3 -8.93,-16.94 -1.04,-0.93 -4.41,-3.13 -7.54,-2.09 0.81,-3.83 -3.36,-7.54 -3.36,-7.54 h 0.12 c -6.84,-6.15 -10.79,-12.3 -10.79,-20.88 0,-0.35 0.12,-0.7 0.12,-1.04 -0.23,-4.06 -2.2,-13.690002 -13.11,-13.690002 -14.5,0 -13.34,25.750002 8.58,25.750002 -27.49,0 -29,-31.900002 -5.22,-31.900002 9.05,0 15.78,6.03 24.24,3.71 h -0.12 c 1.62,-0.35 3.25,-0.58 4.87,-0.58 9.51,0 17.52,6.840002 19.14,15.890002 0.23,1.16 0.35,2.32 0.35,3.6 v 1.97 c 0,0 0.12,5.92 3.48,7.54 -5.57,0 -8.12,-4.52 -15.08,-4.52 3.71,-2.78 3.48,-8.47 3.48,-8.47 v -0.12 c -0.12,-7.19 -5.1,-12.990002 -11.37,-12.990002 -6.15,0 -11.25,5.920002 -11.25,13.110002 0,6.73 3.94,12.18 8.58,16.82 0.81,0.58 4.52,3.36 7.89,2.2 -0.7,3.25 1.97,6.26 3.02,7.31 6.97,6.27 10.91,12.42 10.91,21.12 z"
   class="st1"
   inkscape:label="sleft" />
<path
   style="opacity:0.62000002;fill:#006e9d"
   inkscape:connector-curvature="0"
   id="path8"
   d="m 429.505,159.55 c 0,2.2 -0.46,4.29 -1.16,6.15 -4.18,13.69 -18.56,21.34 -34.1,21.34 -13.11,-0.23 -21.81,-8.93 -21.81,-18.21 0,-4.87 1.86,-11.83 11.02,-14.85 -17.17,6.61 -9.86,29.58 8.58,29.58 8.47,0 15.66,-2.78 20.76,-6.38 -0.93,0.12 -1.74,0.12 -2.67,0.12 -9.51,0 -17.4,-6.84 -19.02,-15.89 -0.23,-1.16 -0.35,-2.32 -0.35,-3.6 v -1.97 c 0,0 -0.23,-5.92 -3.48,-7.54 5.57,0 8.12,4.52 15.08,4.52 -3.71,2.78 -3.48,8.47 -3.48,8.47 v 0.12 c 0,7.19 5.1,12.99 11.25,12.99 6.26,0 11.37,-5.92 11.37,-13.11 0,-6.84 -4.18,-12.3 -8.93,-16.94 -1.04,-0.93 -4.41,-3.13 -7.54,-2.09 0.81,-3.83 -3.36,-7.54 -3.36,-7.54 h 0.12 c -6.84,-6.15 -10.79,-12.3 -10.79,-20.88 0,-0.35 0.12,-0.7 0.12,-1.04 -0.23,-4.06 -2.2,-13.690002 -13.11,-13.690002 -14.5,0 -13.34,25.750002 8.58,25.750002 -27.49,0 -29,-31.900002 -5.22,-31.900002 9.05,0 15.78,6.03 24.24,3.71 h -0.12 c 1.62,-0.35 3.25,-0.58 4.87,-0.58 9.51,0 17.52,6.840002 19.14,15.890002 0.23,1.16 0.35,2.32 0.35,3.6 v 1.97 c 0,0 0.12,5.92 3.48,7.54 -5.57,0 -8.12,-4.52 -15.08,-4.52 3.71,-2.78 3.48,-8.47 3.48,-8.47 v -0.12 c -0.12,-7.19 -5.1,-12.990002 -11.37,-12.990002 -6.15,0 -11.25,5.920002 -11.25,13.110002 0,6.73 3.94,12.18 8.58,16.82 0.81,0.58 4.52,3.36 7.89,2.2 -0.7,3.25 1.97,6.26 3.02,7.31 6.97,6.27 10.91,12.42 10.91,21.12 z"
   class="st3"
   inkscape:label="sright" />
<path
   style="display:inline;fill:#8eb9cc;fill-opacity:0.9951691;stroke:none;stroke-width:0.17;stroke-miterlimit:10;opacity:0.71"
   d="m 235.12695,73.033203 c -1.89597,-0.04798 0.50117,4.807016 -0.96289,5.347656 -0.73702,-1.17261 -1.39212,-0.362664 -1.32812,1.089844 -1.36992,0.0356 -1.95948,-1.063907 -1.56055,1.068359 2.00157,-1.489699 2.87568,1.810268 2.54102,3.933594 -1.50874,0.0431 -4.11922,-4.508219 -5.9336,-5.757812 -2.8562,2.953383 -3.78751,7.664882 -2.75781,11.634765 2.98085,-1.894823 1.35429,-5.134689 2.00781,-8.175781 0.16387,-2.736858 1.35195,-2.322358 2.36524,-0.21875 1.47141,2.264592 3.69441,4.169664 4.85937,6.529297 -0.41547,4.125957 -1.38963,8.199298 -2.22265,12.265625 -2.46919,-0.0349 -3.95301,0.93893 -6.20899,0.74023 -0.0583,2.16648 -3.43261,1.63938 -5.57031,1.93946 0.11314,2.31395 -0.40344,0.57959 -0.2207,-0.61914 -1.83289,0.19432 -0.38601,3.12369 0.0293,3.88867 1.04522,-0.21795 0.45319,-2.04138 1.52735,-2.2207 1.75974,-1.17818 1.81378,2.15044 2.31445,0.49218 0.67415,-1.57037 2.35751,-0.18239 0.9043,1.33203 0.13931,2.45449 -2.71564,1.37789 -2.0918,3.72852 1.58078,3.00486 -6.27389,3.73156 -3.5625,5.49805 1.30318,4.11015 -4.27767,4.75264 -6.74609,6.79101 -2.12391,0.60476 -1.25704,1.18312 -0.0371,1.80664 l 9.4707,-6.09179 10.18164,-6.54688 0.29688,-0.1914 4.92187,-3.16602 c -0.0668,-1.92739 -0.1412,-3.85547 -0.24805,-5.78125 -1.73073,-3.987699 4.29049,-1.27466 4.43946,-3.730469 2.49756,-0.06285 0.30895,-1.636933 -1.06055,-1.289063 -1.14125,1.601084 -2.50364,-0.990408 -1.03906,-1.558594 0.75985,-0.436109 4.84788,-0.952804 2.21875,-1.367187 -1.86874,0.02765 -0.24455,-0.318509 -0.0391,-0.734375 1.90065,0.125861 -1.16293,-1.43023 -0.59961,-0.539063 -1.72145,-1.22965 2.12613,-1.199808 2.82032,-0.720703 -0.77076,-2.692265 3.55505,-0.01647 3.32422,-2.902344 -0.87295,-1.048021 -5.19416,-0.01122 -7.40039,-0.07812 -2.38466,0.09333 0.061,-0.304041 0.0351,-1.070313 3.35638,0.02493 -0.29251,-1.529272 -1.91015,-0.728516 0.48113,-1.663615 -1.42207,-0.163349 -1.41407,-1.203125 0.18588,-2.353321 -1.59767,-6.769255 1.25391,-6.927734 1.0923,-0.355859 1.955,-1.268721 3.45508,-1.238281 2.08848,-1.784402 -2.25697,-1.041134 -3.61524,-1.121094 -0.20756,-1.294527 -1.63997,-0.713822 -1.05664,0.646484 -1.21483,1.544022 -0.66668,-3.438407 -0.94336,-4.677734 -0.16698,-0.04952 -0.3111,-0.07297 -0.4375,-0.07617 z m 2.2168,35.097657 c 0.10983,3.16976 0.1921,6.34064 0.32031,9.50976 2.30837,-0.77795 1.35045,-3.87739 1.39063,-6.49023 0.0973,-1.19186 -0.18207,-2.68075 -0.24024,-3.9668 z m 1.4707,-0.94727 3.38086,-2.17382 c -0.21368,-0.20782 0.31086,-1.15935 -0.27539,-0.98047 -1.24448,-2.02812 -0.8152,1.57634 -2.72656,0.97656 -0.35796,0.52304 -0.4184,1.30456 -0.37891,2.17773 z m -26.34179,16.94336 -13.04688,8.39258 c 4.88378,-2.64987 9.95797,-4.9177 14.98828,-7.26953 -0.43894,-0.39822 -1.24598,-0.7676 -1.9414,-1.12305 z M 92.964844,89.589844 c -0.56,0 -1.440625,0.04109 -2.640625,0.121094 -1.2,0.08 -2.039531,0.158281 -2.519531,0.238281 -3.360001,0.31 -6.458829,1.160781 -9.298829,2.550781 -2.84,1.38 -5.381093,3.180391 -7.621093,5.400391 -2.56,2.529999 -4.580547,5.518979 -6.060547,8.958989 -1.48,3.43998 -2.21875,7.12101 -2.21875,11.04101 0,3.52 0.598828,6.82039 1.798828,9.90039 1.2,3.08 2.839922,5.85985 4.919922,8.33984 2.4,2.40002 4.9,3.87946 7.5,4.43946 2.6,0.56 4.980625,0.58059 7.140625,0.0605 2.16,-0.51999 3.900703,-1.42117 5.220703,-2.70117 1.32,-1.28 1.859139,-2.55984 1.619141,-3.83984 -0.880001,0.24 -1.838907,0.28109 -2.878907,0.12109 -1.04,-0.16 -2.060547,-0.48093 -3.060547,-0.96093 -1,-0.48 -1.979453,-1.07883 -2.939453,-1.79883 -0.96,-0.72 -1.801484,-1.44016 -2.521484,-2.16016 -1.52,-1.44 -2.699063,-3.14156 -3.539063,-5.10156 -0.84,-1.96 -1.259765,-4.05883 -1.259765,-6.29883 0,-2.32 0.419765,-4.44133 1.259765,-6.36133 0.84,-1.92 2.019063,-3.6382 3.539063,-5.1582 1.44,-1.52 3.141562,-2.70102 5.101562,-3.54102 1.96,-0.84 4.058829,-1.25976 6.298829,-1.25976 1.2,0 2.319374,0.36008 3.359374,1.08008 1.040002,0.72 1.560547,2.07984 1.560547,4.08984 v 15.76953 c 0,0.81 -0.199609,1.33031 -0.599609,1.57031 -0.4,0.24 -0.840312,0.32024 -1.320312,0.24024 -0.560001,-0.08 -1.199922,-0.27961 -1.919922,-0.59961 0.72,0.88 1.35992,1.84867 1.919922,2.88867 0.48,0.96 0.920312,2.11164 1.320312,3.43164 0.4,1.32 0.599609,2.78867 0.599609,4.38867 v 33.95117 c 0,2.00002 -0.520545,3.36985 -1.560547,4.08985 -1.04,0.72 -2.159375,1.08008 -3.359374,1.08008 -1.120001,0 -2.000625,-0.42149 -2.640626,-1.27149 -0.64,-0.85 -0.979531,-1.8182 -1.019531,-2.9082 -0.04,-1.09 0.239844,-2.2118 0.839844,-3.3418 0.6,-1.13 1.620547,-1.93969 3.060547,-2.42968 -2.8,0 -4.960469,0.5 -6.480469,1.5 -1.52,1 -2.600234,2.10078 -3.240234,3.30078 -0.88,1.44 -1.31836,3.04078 -1.31836,4.80078 0,3.92 1.23875,6.95914 3.71875,9.11914 2.48,2.16 6.48,3.24023 12,3.24023 h 15.839841 c -0.72,-0.24 -1.35992,-0.64117 -1.91992,-1.20117 -0.48,-0.48 -0.92031,-1.17961 -1.32031,-2.09961 -0.4,-0.92 -0.59961,-2.13867 -0.59961,-3.63867 V 96.550781 c 0,-1.52 0.19961,-2.740156 0.59961,-3.660156 0.4,-0.92 0.84031,-1.621561 1.32031,-2.101563 0.56,-0.559999 1.19992,-0.959218 1.91992,-1.199218 z m 155.230466,5.490234 c -1.87927,-0.0281 -3.03752,0.258926 -3.53125,1.230469 -1.75539,0.338198 2.31862,0.846361 -0.46875,1.080078 0.48895,0.637006 1.15741,0.8801 0.87891,2.240234 0.7564,-0.244575 1.17321,0.221411 1.36133,0.917971 l 0.64062,-0.675783 c 0.0347,1.130153 0.0617,2.260253 0.0879,3.390623 1.56337,1.01497 4.96653,0.0716 7.3418,0.22656 l -7.39648,-3.652339 0.0156,-0.01758 c 1.9186,0.118871 0.40543,-2.504741 2.14258,-2.443359 -0.53579,-0.204381 -2.00634,-0.662517 -0.0918,-0.816406 0.37629,-1.379852 -1.58926,0.187758 -0.98047,-1.480469 z m -1.75976,5.468752 -4.22071,4.46094 c 1.66986,-0.0331 1.69094,-1.40004 3.625,-1.20313 0.53888,-0.0626 0.92881,-2.02439 0.59571,-3.25781 z M 131.96484,98.570312 c 0.08,0 0.3393,0.08024 0.7793,0.240235 0.44,0.16 0.88031,0.478984 1.32031,0.958984 0.44,0.479999 0.84118,1.179609 1.20117,2.099609 0.36001,0.92 0.53907,2.14016 0.53907,3.66016 v 26.04101 c 0,0.8 -0.19961,1.3 -0.59961,1.5 -0.4,0.2 -0.84031,0.25969 -1.32031,0.17969 -0.56,-0.08 -1.19993,-0.24047 -1.91993,-0.48047 0.72,0.88 1.35993,1.84086 1.91993,2.88086 0.48,0.88 0.92031,1.99938 1.32031,3.35938 0.4,1.36 0.59961,2.83945 0.59961,4.43945 v 7.20117 15 3.95899 c 0,1.52 -0.17905,2.74015 -0.53907,3.66015 -0.35999,0.92 -0.76117,1.61961 -1.20117,2.09961 -0.44,0.48 -0.88031,0.80094 -1.32031,0.96094 -0.44,0.16 -0.6993,0.24023 -0.7793,0.24023 h 19.67969 c -0.16,0 -0.43984,-0.0802 -0.83984,-0.24023 -0.4,-0.16 -0.81977,-0.48094 -1.25977,-0.96094 -0.44,-0.48 -0.83922,-1.17961 -1.19922,-2.09961 -0.36,-0.92 -0.54101,-2.14016 -0.54101,-3.66015 v -43.19922 l 21,44.03906 c 0.56,1.2 1.28015,2.24109 2.16015,3.12109 0.72,0.8 1.63977,1.49961 2.75977,2.09961 1.12,0.6 2.44094,0.90039 3.96094,0.90039 h 9.95898 c -0.16,0 -0.43984,-0.0802 -0.83984,-0.24023 -0.4,-0.16 -0.84032,-0.48094 -1.32031,-0.96094 -0.48001,-0.48 -0.89977,-1.17961 -1.25977,-2.09961 -0.36,-0.92 -0.53906,-2.14016 -0.53906,-3.66015 V 126.89062 105.5293 c 0,-1.52 0.17906,-2.74016 0.53906,-3.66016 0.36,-0.92 0.77976,-1.61961 1.25977,-2.099609 0.47999,-0.48 0.92031,-0.798984 1.32031,-0.958984 0.4,-0.16 0.67984,-0.240234 0.83984,-0.240235 H 167.8457 c 0.08,10e-7 0.3393,0.08024 0.7793,0.240235 0.44,0.16 0.88031,0.478984 1.32031,0.958984 0.44,0.479999 0.83922,1.179609 1.19922,2.099609 0.36,0.92 0.54102,2.14016 0.54102,3.66016 v 43.20117 l -21,-44.16016 c -0.56,-1.12 -1.28016,-2.12 -2.16016,-3 -0.72,-0.72 -1.63975,-1.40101 -2.75977,-2.041013 -1.11999,-0.64 -2.44093,-0.958984 -3.96093,-0.958985 z m 159.47071,0 c 0.08,10e-7 0.33929,0.08024 0.77929,0.240235 0.44,0.16 0.88032,0.478984 1.32032,0.958984 0.44,0.479999 0.8392,1.179609 1.19922,2.099609 0.36,0.92 0.54101,2.14016 0.54101,3.66016 v 7.08008 11.88085 7.08008 c 0,0.8 -0.19961,1.3 -0.59961,1.5 -0.4,0.2 -0.84031,0.25969 -1.32031,0.17969 -0.56,-0.08 -1.19992,-0.24047 -1.91992,-0.48047 0.72,0.88 1.35992,1.84086 1.91992,2.88086 0.48,0.88 0.92031,1.99938 1.32031,3.35938 0.4,1.36 0.59961,2.83945 0.59961,4.43945 v 9.12109 c 0,3.36 0.63992,6.49992 1.91992,9.41992 1.28,2.92 3.00016,5.45915 5.16016,7.61915 2.16,2.15998 4.67859,3.86156 7.55859,5.10156 2.88,1.24 6.00133,1.85937 9.36133,1.85937 3.36,0 6.47938,-0.61937 9.35938,-1.85937 2.88,-1.24 5.40054,-2.94157 7.56054,-5.10156 2.16,-2.16 3.88016,-4.69915 5.16016,-7.61915 1.28,-2.92 1.91992,-6.05992 1.91992,-9.41992 V 124.49023 118.25 105.5293 c 0,-1.52 0.17906,-2.74016 0.53906,-3.66016 0.36,-0.92 0.76119,-1.61961 1.20117,-2.099609 0.44001,-0.48 0.85977,-0.798984 1.25977,-0.958984 0.4,-0.16 0.67984,-0.240234 0.83984,-0.240235 h -19.80078 c 0.08,10e-7 0.34125,0.08024 0.78125,0.240235 0.44,0.16 0.89891,0.478984 1.37891,0.958984 0.48,0.479999 0.89976,1.179609 1.25977,2.099609 0.35998,0.92 0.54101,2.14016 0.54101,3.66016 v 3.96093 h -0.12109 v 8.51954 6.12109 0.23828 c 0,1.36 0.0205,2.6418 0.0605,3.8418 0.04,1.2 0.0606,2.31937 0.0606,3.35937 0,0.8 -0.22016,1.3 -0.66016,1.5 -0.44,0.2 -0.90085,0.25969 -1.38085,0.17969 -0.56001,-0.08 -1.19993,-0.24047 -1.91993,-0.48047 0.72,0.88 1.35991,1.84086 1.91993,2.88086 0.47998,0.88 0.94085,1.99938 1.38085,3.35938 0.44,1.36 0.66016,2.83945 0.66016,4.43945 v 1.68164 l -0.12109,7.43945 c 0,3.36 -1.15852,6.19953 -3.47852,8.51953 -1.12,1.12 -2.39984,1.98008 -3.83984,2.58008 -1.44,0.6 -2.96055,0.90039 -4.56055,0.90039 -3.36,0 -6.19953,-1.16047 -8.51953,-3.48047 -2.32,-2.32 -3.48047,-5.15953 -3.48047,-8.51953 V 105.5293 c 0,-1.52 0.17906,-2.74016 0.53906,-3.66016 0.36,-0.92 0.76119,-1.61961 1.20117,-2.099609 0.44,-0.48 0.85977,-0.798984 1.25977,-0.958984 0.4,-0.16 0.67984,-0.240234 0.83984,-0.240235 z m 153.49023,0 c 0.08,0 0.3393,0.08024 0.7793,0.240235 0.44,0.16 0.88031,0.478984 1.32031,0.958984 0.44,0.479999 0.83922,1.179609 1.19922,2.099609 0.36,0.92 0.54102,2.14016 0.54101,3.66016 v 8.75976 c 0.16001,-0.16 0.60008,-0.43984 1.33008,-0.83984 0.73,-0.4 1.62875,-0.81977 2.71875,-1.25977 1.08,-0.44 2.33024,-0.81867 3.74024,-1.13867 1.41,-0.32 2.88015,-0.48047 4.41015,-0.48047 h 5.91993 v 21 c 0,0.8 -0.20913,1.32055 -0.61915,1.56055 -0.41,0.24 -0.87132,0.31828 -1.36132,0.23828 -0.58,-0.08 -1.23852,-0.27961 -1.97852,-0.59961 0.72,0.88 1.35992,1.84086 1.91992,2.88086 0.48,0.96 0.91836,2.09992 1.31836,3.41992 0.4,1.32 0.60157,2.77891 0.60156,4.37891 v 26.16016 c 0,1.52 -0.18101,2.74015 -0.54101,3.66015 -0.36,0.92 -0.75922,1.61961 -1.19922,2.09961 -0.44,0.48 -0.88031,0.80094 -1.32031,0.96094 -0.44,0.16 -0.6993,0.24023 -0.7793,0.24023 h 19.79883 c -0.17,0 -0.45914,-0.0802 -0.86914,-0.24023 -0.41,-0.16 -0.85078,-0.48094 -1.30078,-0.96094 -0.46,-0.48 -0.87024,-1.17961 -1.24024,-2.09961 -0.37,-0.92 -0.55859,-2.14016 -0.55859,-3.66015 v -59.03907 h 5.91992 c 1.53,0 3.00016,0.16047 4.41016,0.48047 1.41,0.32 2.64828,0.69867 3.73828,1.13867 1.09,0.44 1.9907,0.85977 2.7207,1.25977 0.72,0.4 1.17008,0.67984 1.33008,0.83984 v -8.75976 c 0,-1.52 0.17906,-2.74016 0.53906,-3.66016 0.36,-0.92 0.76117,-1.61961 1.20117,-2.099609 0.44,-0.48 0.85977,-0.798984 1.25977,-0.958984 0.4,-0.16 0.67984,-0.240235 0.83984,-0.240235 z m 79.06836,0 c 0.08,0 0.34125,0.08024 0.78125,0.240235 0.44,0.16 0.88031,0.478984 1.32031,0.958984 0.44,0.479999 0.83922,1.179609 1.19922,2.099609 0.36,0.92 0.54102,2.14016 0.54102,3.66016 v 26.04101 c 0,0.8 -0.20158,1.3 -0.60156,1.5 -0.40001,0.2 -0.84032,0.25969 -1.32032,0.17969 -0.56,-0.08 -1.19992,-0.24047 -1.91992,-0.48047 0.72,0.88 1.35992,1.84086 1.91992,2.88086 0.48,0.88 0.92031,1.99938 1.32032,3.35938 0.39999,1.36 0.60156,2.83945 0.60156,4.43945 v 26.16016 c 0,1.52 -0.18102,2.74015 -0.54102,3.66015 -0.36,0.92 -0.75922,1.61961 -1.19922,2.09961 -0.44,0.48 -0.88031,0.80094 -1.32031,0.96094 -0.44,0.16 -0.70125,0.24023 -0.78125,0.24023 h 19.68164 c -0.16,0 -0.43984,-0.0802 -0.83984,-0.24023 -0.4,-0.16 -0.82172,-0.48094 -1.26172,-0.96094 -0.44,-0.48 -0.83922,-1.17961 -1.19922,-2.09961 -0.36,-0.92 -0.53906,-2.14016 -0.53906,-3.66015 v -17.03907 h 6.23828 c 0.08,0 0.35984,0.36008 0.83984,1.08008 0.4,0.64 0.84031,1.51867 1.32032,2.63867 0.47999,0.96 0.94085,2.04024 1.38085,3.24024 0.44,1.2 0.94,2.47984 1.5,3.83984 0.4,0.96 0.79922,1.96 1.19922,3 0.4,1.04 0.88141,2.08109 1.44141,3.12109 0.4,0.8 0.79922,1.57985 1.19922,2.33985 0.4,0.76 0.87945,1.53984 1.43945,2.33984 1.44,2.16 3.26094,3.49953 5.46094,4.01953 2.2,0.52 4.33992,0.50142 6.41992,-0.0586 2.08,-0.56 3.85984,-1.52086 5.33984,-2.88086 1.48,-1.36 2.22071,-2.80031 2.22071,-4.32031 -0.64,0.48 -1.40125,0.78039 -2.28125,0.90039 -0.88,0.12 -1.85946,-0.10016 -2.93946,-0.66016 -1.08,-0.56 -2.19937,-1.50031 -3.35937,-2.82031 -1.16,-1.32 -2.34102,-3.21922 -3.54102,-5.69922 -0.4,-0.96 -0.79921,-1.93945 -1.19922,-2.93945 -0.39999,-1 -0.80117,-2.06164 -1.20117,-3.18164 -0.32,-0.88 -0.62039,-1.69899 -0.90039,-2.45899 -0.28,-0.76 -0.61953,-1.53984 -1.01953,-2.33984 -0.08,-0.16 -0.16023,-0.34102 -0.24023,-0.54102 -0.08,-0.2 -0.16024,-0.37906 -0.24024,-0.53906 3.52,-1.52 6.52,-3.52 9,-6 2.48,-2.4 4.42032,-5.23953 5.82032,-8.51953 1.39999,-3.28 2.10156,-6.80055 2.10156,-10.56055 0,-3.76 -0.70158,-7.26 -2.10156,-10.5 -1.40001,-3.24 -3.34032,-6.10008 -5.82032,-8.58008 -2.48,-2.48 -5.33812,-4.42031 -8.57812,-5.82031 -3.24,-1.399998 -6.74,-2.099607 -10.5,-2.099608 z m 75.24024,0 c 0.08,0 0.34125,0.08024 0.78124,0.240235 0.44002,0.16 0.88032,0.478984 1.32032,0.958984 0.44,0.479999 0.83922,1.179609 1.19922,2.099609 0.36,0.92 0.53906,2.14016 0.53906,3.66016 v 26.04101 c 0,0.8 -0.19961,1.32055 -0.59961,1.56055 -0.4,0.24 -0.84031,0.31828 -1.32031,0.23828 -0.56,-0.08 -1.19993,-0.27961 -1.91992,-0.59961 0.71999,0.88 1.35992,1.84086 1.91992,2.88086 0.48,0.96 0.92031,2.09992 1.32031,3.41992 0.4,1.32 0.59961,2.77891 0.59961,4.37891 v 26.16016 c 0,1.52 -0.17906,2.74015 -0.53906,3.66015 -0.36,0.92 -0.75922,1.61961 -1.19922,2.09961 -0.44,0.48 -0.8803,0.80094 -1.32032,0.96094 -0.43998,0.16 -0.70125,0.24023 -0.78124,0.24023 h 19.67968 c -0.16,0 -0.43984,-0.0802 -0.83984,-0.24023 -0.4,-0.16 -0.81977,-0.48094 -1.25977,-0.96094 -0.44,-0.48 -0.83922,-1.17961 -1.19922,-2.09961 -0.36,-0.92 -0.54101,-2.14016 -0.54101,-3.66015 V 105.5293 c 0,-1.52 0.18101,-2.74016 0.54101,-3.66016 0.36,-0.92 0.75922,-1.61961 1.19922,-2.099609 0.44,-0.48 0.85977,-0.798984 1.25977,-0.958984 0.4,-0.16 0.67984,-0.240234 0.83984,-0.240235 z m 58.4414,0 c 0.08,10e-7 0.39899,0.259297 0.95899,0.779297 0.56,0.52 1.11968,1.260701 1.67968,2.220701 0.56,0.96 0.97977,2.09992 1.25977,3.41992 0.28,1.32 0.26142,2.73977 -0.0586,4.25977 -0.55998,2.16 -1.11968,4.48094 -1.67968,6.96094 -0.48,2.16 -1.06024,4.63945 -1.74024,7.43945 -0.68,2.8 -1.38156,5.75891 -2.10156,8.87891 -0.16,0.72 -0.47898,1.13976 -0.95898,1.25976 -0.48,0.12 -0.92032,0.10142 -1.32032,-0.0586 -0.56,-0.16 -1.11968,-0.48094 -1.67968,-0.96094 0.48,0.96 0.8792,2.04024 1.19922,3.24024 0.24,1.04 0.42101,2.23959 0.54101,3.59961 0.12,1.35999 -0.0199,2.8414 -0.41992,4.4414 -0.88,3.6 -1.70094,7.03836 -2.46094,10.31836 -0.76,3.28 -1.45961,6.20172 -2.09961,8.76172 -0.72,2.96 -1.35992,5.75844 -1.91992,8.39844 -0.32,1.04 -0.71922,1.88148 -1.19922,2.52148 -0.48,0.64 -0.96141,1.14 -1.4414,1.5 -0.48001,0.36 -0.89977,0.6193 -1.25977,0.7793 -0.36,0.16 -0.58016,0.24023 -0.66016,0.24023 h 19.67969 c -0.24,0 -0.51984,-0.11937 -0.83984,-0.35937 -0.56,-0.32 -1.0786,-0.94133 -1.5586,-1.86133 -0.48,-0.92 -0.52109,-2.29867 -0.12109,-4.13867 l 0.24023,-0.96094 2.2793,-9.7207 h 15.7207 l 2.2793,9.7207 0.24024,0.96094 c 0.48,2.08 0.42031,3.55945 -0.17969,4.43945 -0.6,0.88 -1.18024,1.43969 -1.74024,1.67969 -0.16,0.16 -0.35961,0.24023 -0.59961,0.24023 h 19.67969 c -0.08,0 -0.30016,-0.0802 -0.66015,-0.24023 -0.36001,-0.16 -0.77977,-0.4193 -1.25977,-0.7793 -0.48,-0.36 -0.95945,-0.86 -1.43945,-1.5 -0.48,-0.64 -0.87922,-1.48148 -1.19922,-2.52148 -0.64,-2.64 -1.32102,-5.43844 -2.04102,-8.39844 -0.64,-2.56 -1.31906,-5.48172 -2.03906,-8.76172 -0.72,-3.28 -1.52039,-6.71836 -2.40039,-10.31836 -0.4,-1.6 -0.72094,-2.96008 -0.96094,-4.08008 -0.24,-1.12 -0.46016,-2.12 -0.66015,-3 -0.20002,-0.88 -0.37907,-1.65984 -0.53907,-2.33984 -0.16,-0.68 -0.32047,-1.38156 -0.48047,-2.10156 -0.8,-3.12 -1.52015,-6.07891 -2.16015,-8.87891 -0.64,-2.8 -1.19969,-5.27945 -1.67969,-7.43945 -0.56,-2.48 -1.11969,-4.80094 -1.67969,-6.96094 -0.32,-1.52 -0.32,-2.93977 0,-4.25977 0.32,-1.32 0.76032,-2.45992 1.32031,-3.41992 0.56002,-0.96 1.09915,-1.700701 1.61915,-2.220701 0.52,-0.52 0.85953,-0.779297 1.01953,-0.779297 z m -389.60156,3.873048 c -0.49187,-0.0345 -0.8226,0.0857 -0.75,0.62695 l -0.31055,7.08008 c -2.24422,0.57316 -4.41447,1.6816 -6.34179,3.28906 -9e-4,-0.0117 -9.6e-4,-0.0234 -0.002,-0.0351 0.62766,-1.30791 -0.42055,-1.98218 -1.50586,-2.03907 -1.0853,-0.0569 -2.2072,0.50235 -1.73047,1.66407 -0.45508,1.71682 0.16983,2.28259 1.20899,2.40234 -3.30055,3.82258 -5.42321,9.52223 -5.02735,17.06836 -0.60942,-11.70192 6.43687,-17.85918 13.24415,-18.84961 l -0.0527,1.21875 c 0.34778,-0.45235 0.72929,-0.89555 1.10742,-1.33594 5.5368,-0.37342 10.63801,2.70813 10.97071,9.04688 0.6,11.47 -9.97055,13.64984 -13.56055,13.83984 0.58,-0.03 1.05086,0.0593 1.63086,0.0293 l -17.38086,0.91016 c 0,0 -5.55899,0.28992 -7.70899,-3.08008 -1.79,3.58 -7.3496,3.87109 -7.34961,3.87109 l -21.66015,1.13867 c -7.3,0.39 -18.01055,-0.0981 -25.81055,-9.32812 0.32,6.14 14.72063,14.78844 15.39063,27.64844 l 0.1289,2.55078 c 0.89,10.4 9.88969,18.05976 20.42969,17.50976 l 13.55078,-0.70898 c 0,0 5.56094,-0.29188 7.71094,3.07812 1.79,-3.57 7.34961,-3.85914 7.34961,-3.86914 l 13.54883,-0.70898 c 10.54,-0.56 18.68047,-9.35102 18.48047,-19.79102 l -0.34571,-6.64844 c -0.48234,-9.87715 2.23448,-17.06665 1.90625,-23.40234 -0.56223,-10.76856 -7.40415,-15.98004 -14.58008,-15.92383 0.10233,-0.29775 0.17564,-0.59412 0.18165,-0.88672 -0.63773,-1.81149 -0.10313,-5.64298 -0.041,-6.13281 -0.59447,0.31321 -1.86187,-0.17484 -2.68164,-0.23242 z m -1.26758,12.42578 c -0.39436,0.51294 -0.76197,1.03105 -1.04102,1.56055 0.13156,4.1304 0.28695,8.2606 0.42969,12.39062 z m 0.49805,-11.88867 c -4.24625,0.16768 -8.49612,0.26578 -12.74024,0.48047 z m 272.53125,7.58984 h 9 c 2.08,0 4.01836,0.39922 5.81836,1.19922 1.8,0.8 3.38023,1.88024 4.74023,3.24024 1.36,1.36 2.44024,2.94023 3.24024,4.74023 0.8,1.8 1.20117,3.74031 1.20117,5.82031 0,2.08 -0.40117,4.02031 -1.20117,5.82031 -0.8,1.80001 -1.88024,3.38024 -3.24024,4.74024 -1.36,1.36 -2.94023,2.43828 -4.74023,3.23828 -1.8,0.8 -3.73836,1.20117 -5.81836,1.20117 h -9 v -16.08008 z m -285.88086,0.97461 c -1.08464,-0.0568 -2.20922,0.50442 -1.73242,1.66602 -0.72557,2.73727 1.29544,2.54758 3.36328,2.28906 -0.0337,-0.63943 -0.0844,-1.27758 -0.13282,-1.91602 0.63244,-1.30806 -0.4134,-1.98224 -1.49804,-2.03906 z m -5.45117,0.17969 c -1.08465,-0.0568 -2.20727,0.50444 -1.73047,1.66601 -0.72557,2.73728 1.29349,2.54759 3.36133,2.28907 -0.0337,-0.63943 -0.0844,-1.27758 -0.13282,-1.91602 0.63244,-1.30806 -0.4134,-1.98224 -1.49804,-2.03906 z m -5.44922,0.19922 c -1.08531,-0.0569 -2.20916,0.5043 -1.73242,1.66601 -0.72557,2.73727 1.29544,2.54954 3.36328,2.29102 -0.0289,-0.63952 -0.0766,-1.27969 -0.125,-1.91797 0.62765,-1.3079 -0.42056,-1.98217 -1.50586,-2.03906 z m 426.85937,14.24609 5.04102,21.35938 H 664.875 Z m -389.79883,17.7207 0.59961,11.46876 c 0.32,6.25999 -5.32976,11.43054 -12.50976,11.81054 l -17.04102,0.89063 c 0,0 -5.55898,0.28992 -7.70898,-3.08008 -1.79,3.58 -7.34961,3.86914 -7.34961,3.86914 l -17.03125,0.89062 c -7.18,0.38 -13.33992,-4.17968 -13.66992,-10.42968 l -0.59961,-11.47071 10.42969,-0.55078 c 0.11999,-0.01 0.23156,-0.01 0.35156,-0.0195 l 19.34961,-1.00976 c 0,0 5.55898,-0.28993 7.70898,3.08007 1.79,-3.58 7.34961,-3.86914 7.34961,-3.86914 z m -22.8457,76.1875 c -0.89705,-0.14178 -2.69879,1.46334 -3.93359,1.97266 -8.01866,0.769 -16.03798,1.53763 -24.05664,2.30664 -1.58188,-0.1931 -3.07155,-0.98965 -4.61524,-1.41797 l 2.16016,22.56055 10.36133,-0.99023 c -1.06667,-1.57 -2.13452,-3.13899 -3.20117,-4.70899 -0.1967,-2.05595 -0.39314,-4.11203 -0.58985,-6.16797 -0.24825,-0.94988 -0.16947,-2.32948 1.17188,-2.0664 1.1134,0.0725 2.45467,-0.67487 3.38867,0.15429 0.16892,1.74866 0.33693,3.49744 0.50586,5.2461 -0.0511,1.03823 -0.77056,1.94341 -1.09571,2.92382 l 10.27344,-0.98242 c -1.03462,-1.33759 -1.94406,-3.23812 -1.79101,-5.19922 -0.031,-1.18345 -0.91993,-3.6044 1.13281,-3.33203 1.17247,0.0806 2.58193,-0.71195 3.57422,0.13282 0.23725,2.47133 0.47565,4.94273 0.71289,7.41406 -0.67934,1.83514 -1.54323,3.64261 -2.29297,5.46679 3.47667,-0.33665 6.95302,-0.67309 10.42969,-1.00976 -0.71177,-7.43399 -1.423,-14.86873 -2.13477,-22.30274 z m 243.99609,2.55274 -1.80078,22.59961 4.24024,-1.51953 24.43945,1.93945 3.95117,2.16992 1.79883,-22.59961 -10.37891,-0.83008 2.33008,5.19922 -0.61132,7.65039 -0.51954,0.43946 -3.68945,-0.28907 -0.50977,-0.52148 0.44922,-5.59961 1.56055,-2.34961 -10.38086,-0.83008 1.16992,2.57032 -0.44922,5.59961 -0.51953,0.43945 -3.96093,-0.31836 -0.50977,-0.52148 0.59961,-7.50977 3.21094,-4.90039 z m -181.41015,3.61914 1.51953,2.7207 v 32.71875 l -1.59961,2.88086 h 12.16016 l -1.59961,-2.88086 V 226.25 Z m 34.16015,0 -4.48046,4.48047 v 14.40039 l 4.48046,4.47852 h 15.2793 l 0.64063,0.64062 v 4.80078 l -0.64063,0.5586 h -10.80078 v -0.24024 l 1.52148,-2.79883 h -10.48046 v 7.51953 l 4.48046,4.48047 h 20.39844 l 4.48047,-4.48047 V 230.73047 L 374.41406,226.25 Z m 41.75977,0 1.51953,2.7207 v 32.71875 l -1.59961,2.88086 h 12.16016 l -1.59961,-2.88086 V 226.25 Z m 29.75977,0 1.51953,2.7207 v 32.71875 l -1.59961,2.88086 h 12.16015 l -1.59961,-2.88086 V 226.25 Z m -66.40039,8.96094 h 10.16015 c 0.24,0.24 0.40063,0.39859 0.64063,0.55859 v 4.08008 l -0.64063,0.80078 h -10.16015 l -0.64063,-0.56055 v -4.32031 c 0.24,-0.16 0.40063,-0.31859 0.64063,-0.55859 z m 104.84179,1.17187 c -0.15191,-0.001 -0.30559,0.008 -0.45898,0.0273 -1.23865,0.20059 -2.81645,0.99814 -2.84766,2.42968 0.1545,1.52959 2.15413,1.7602 2.93164,0.625 1.56432,-0.45824 1.43523,2.11403 -0.11718,1.52149 -1.59285,-0.23783 -3.16565,-0.78972 -4.77149,-0.83985 -0.59641,0.10724 -1.09086,0.60381 -1.19336,1.20118 -0.25153,1.18328 0.98094,1.92028 2.01758,1.91015 8.50206,1.70493 17.00309,3.39857 25.50781,5.09961 -3.56215,-2.51006 -7.25783,-4.84251 -10.63672,-7.60156 -1.21266,-0.99287 -2.29416,-2.12642 -3.38476,-3.24805 -1.08115,1.34494 -2.13804,2.76277 -2.53321,4.48047 -0.73629,-0.0781 -1.32908,-0.16217 -0.79882,-0.97461 0.59606,-2.29268 -1.4362,-4.6083 -3.71485,-4.63086 z m -169.01758,1.23242 c -1.22052,0.0349 -2.43853,0.60936 -3.08398,1.67774 -0.73753,1.13612 -0.85461,2.66719 -0.24023,3.88281 -1.64764,0.89418 -1.42289,-1.83341 -2.53711,-2.58203 -0.4202,-0.49589 -0.85079,-0.98247 -1.27539,-1.47461 -2.27879,2.7902 -4.98455,5.19062 -7.85157,7.36133 -1.83522,1.43257 -3.67063,2.86624 -5.50586,4.29883 8.70524,-2.28464 17.41015,-4.55459 26.11133,-6.85157 0.72913,-0.2451 1.16122,-1.07892 0.94141,-1.8164 -0.24035,-0.98513 -1.42447,-1.33249 -2.2793,-0.92969 -1.40076,0.3673 -2.80235,0.73435 -4.20312,1.10156 -1.61146,-0.35866 -0.34523,-2.46853 0.75781,-1.32617 1.12668,1.09657 3.04337,-0.43845 2.26758,-1.77539 -0.65697,-1.09576 -1.88104,-1.60128 -3.10157,-1.56641 z m 159.11719,1.62305 c -0.47772,-0.007 -0.94116,0.23284 -1.14648,0.81055 -0.0883,0.17398 -0.15119,0.36117 -0.17774,0.55469 h 0.002 c -0.28528,1.69484 2.53438,1.92942 2.70703,0.27734 0.24707,-0.93958 -0.58857,-1.63145 -1.38477,-1.64258 z m -149.12109,0.64063 c -0.62302,-0.0606 -1.26828,0.26515 -1.41992,1.05664 -0.41033,1.586 2.10418,2.42155 2.67968,0.87304 0.0719,-0.21395 0.0747,-0.44604 0.0312,-0.66601 -0.0675,-0.75665 -0.66799,-1.20309 -1.29101,-1.26367 z m 148.33008,2.31445 c -0.24998,0.018 -0.50261,0.11872 -0.73438,0.32422 -0.16405,0.15502 -0.27682,0.35764 -0.3418,0.57226 -0.5925,1.399 1.28289,2.7134 2.29493,1.45899 0.90019,-0.9805 -0.13551,-2.43347 -1.21875,-2.35547 z m 18.49023,0.17773 c 0.28325,0.0353 0.70509,0.69338 -0.18359,0.23633 0.01,-0.19117 0.0892,-0.24809 0.18359,-0.23633 z m -166.04101,0.42579 c -0.84011,0.0652 -1.70869,0.8622 -1.31836,1.82421 0.35805,1.51262 2.86622,1.16199 2.625,-0.45507 -0.003,-0.19509 -0.0379,-0.38898 -0.10547,-0.57227 -0.20446,-0.61122 -0.69713,-0.83602 -1.20117,-0.79687 z m 152.50585,0.48632 c -0.65853,0.0275 -1.26865,0.51586 -1.40234,1.17578 -0.25114,0.98245 0.63234,1.84608 1.57617,1.89258 1.40893,0.33455 2.81765,0.66927 4.22656,1.00391 1.25352,1.07431 -0.85667,2.34132 -1.29296,0.81445 -0.47869,-1.49758 -2.89191,-1.04276 -2.83594,0.50196 0.12905,2.55195 3.36765,4.0873 5.51172,2.80859 1.18516,-0.65585 2.00963,-1.95076 2.03906,-3.3125 1.87459,-0.0143 0.39214,2.28606 1.02344,3.4707 0.13766,0.63523 0.28835,1.26836 0.43164,1.90235 3.3232,-1.39086 6.8396,-2.23914 10.39062,-2.80664 2.2933,-0.4013 4.58756,-0.80184 6.88086,-1.20313 -8.75702,-2.07734 -17.50636,-4.16791 -26.26562,-6.23242 -0.0948,-0.0158 -0.18913,-0.0196 -0.28321,-0.0156 z m -170.88476,0.77539 c 0.043,-0.003 0.0874,0.006 0.13086,0.0312 l 0.0703,0.1543 c -0.72841,0.41815 -0.50204,-0.16698 -0.20117,-0.18555 z m 13.50391,0.0918 c -0.40285,-9.8e-4 -0.81691,0.10486 -1.15821,0.29102 -8.3051,2.4934 -16.60453,4.99605 -24.91015,7.49414 4.32406,0.54012 8.68151,0.85903 12.96093,1.70507 1.53709,0.30603 3.02563,0.80057 4.51563,1.27735 0.3217,-1.69538 0.58791,-3.44473 0.1289,-5.14649 0.68652,-0.27735 1.25,-0.48198 1.16407,0.48438 0.58889,2.45724 3.8289,3.53202 5.84765,2.10156 0.99883,-0.75949 2.01673,-2.20828 1.3711,-3.48633 -0.85564,-1.27727 -2.7285,-0.53933 -2.88086,0.82813 -1.16507,1.14004 -2.26198,-1.18941 -0.61328,-1.39649 1.51758,-0.53913 3.16468,-0.79104 4.60546,-1.50195 0.47592,-0.37509 0.67872,-1.04765 0.48829,-1.62305 -0.20903,-0.7266 -0.84814,-1.0257 -1.51953,-1.02734 z m 169.30273,4.99219 c 0.95941,-0.0303 0.20275,0.5082 -0.01,0.16797 z m -180.79297,1.54101 c 0.32485,0.69339 -1.33229,0.0194 0,0 z m -27.68359,5.93555 c -0.5429,1.1768 -1.08602,2.35444 -1.62891,3.53125 -2.76374,4.56533 -5.64299,9.06803 -8.45117,13.60938 -4.62146,-0.64139 -9.24378,-1.28243 -13.86524,-1.92383 -1.98679,-0.14239 -3.86859,-0.77473 -5.76562,-1.33594 1.61938,3.48689 3.23999,6.97406 4.85937,10.46094 0.35268,0.3483 0.90866,-1.01382 1.3418,-1.3418 2.99,0.42333 5.97875,0.84816 8.96875,1.27148 -1.56377,2.48843 -3.12763,4.97644 -4.69141,7.46485 -0.48604,0.46127 -1.44399,0.0343 -2.11718,0.14453 1.64333,3.54 3.28637,7.07914 4.92968,10.61914 l 1.5,-3.26953 8.66993,-13.83008 13.86718,2 c 1.93835,0.1854 3.81445,0.66155 5.67188,1.23047 -1.63636,-3.52344 -3.27184,-7.04687 -4.9082,-10.57031 -0.39266,0.0844 -0.891,1.10898 -1.32227,1.54101 -2.96,-0.41333 -5.91891,-0.8269 -8.87891,-1.24023 l 4.65821,-7.45313 c 0.39672,-0.64521 1.4222,-0.1404 2.09179,-0.28711 -1.64333,-3.54 -3.28635,-7.08109 -4.92968,-10.62109 z m 236.80859,5.11133 -5.03906,2 -6.93946,16.01953 2,5.03906 22.82032,9.88086 5.03906,-2 6.93945,-16.0293 -2,-5.04101 -7.53906,-3.25977 -3.54101,8.16993 3,-0.0391 1.07031,0.45899 0.2207,0.68945 -3.46094,7.98047 -0.66015,0.31055 -14.83008,-6.41993 c -0.1,-0.27 -0.17875,-0.44945 -0.21875,-0.68945 l 3.45898,-7.98047 c 0.21,-0.13 0.39016,-0.20054 0.66016,-0.31054 l 1.18945,0.51953 1.96094,2.1914 3.53906,-8.16992 z m -65.30273,20.37109 c -0.16788,-0.002 -0.34834,0.0343 -0.53516,0.11719 -0.18699,0.0556 -0.36475,0.14 -0.52344,0.25391 -1.42606,0.95928 0.34457,3.16783 1.66211,2.15625 1.19247,-0.65419 0.57164,-2.51593 -0.60351,-2.52735 z m -105.01953,0.71485 c -0.95761,0.0119 -1.84139,1.02348 -1.20118,2.04882 0.7772,1.44214 3.18914,0.34527 2.5586,-1.18164 -0.0928,-0.20579 -0.24823,-0.37804 -0.42969,-0.50976 -0.28193,-0.25453 -0.60855,-0.36141 -0.92773,-0.35742 z m 102.43359,0.82617 c -0.22536,-0.0124 -0.44996,0.0459 -0.65039,0.14648 -1.42282,0.53278 -1.08513,2.79684 0.52148,2.66797 1.63801,-0.0265 1.77474,-2.67176 0.12891,-2.81445 z m -99.87891,0.69922 c -1.20902,-0.0474 -1.92179,2.01259 -0.60547,2.6289 1.29085,0.86602 2.89335,-1.09714 1.61719,-2.11914 -0.13546,-0.14043 -0.29267,-0.26112 -0.4668,-0.34961 -0.18847,-0.10309 -0.3722,-0.15338 -0.54492,-0.16015 z m 104.99805,1.85937 c -0.29934,-0.007 -0.59958,0.0738 -0.85156,0.24219 -1.03167,0.63174 -0.71847,2.03214 0.002,2.77734 4.61345,7.3422 9.23344,14.67614 13.85156,22.01758 -0.62996,-4.31189 -1.47955,-8.597 -1.80273,-12.94726 -0.11406,-1.56311 -0.0361,-3.1302 0.0273,-4.69336 -1.71986,0.14103 -3.47587,0.35082 -4.99414,1.24609 -0.45002,-0.58796 -0.798,-1.07566 0.15625,-1.25 2.21196,-1.22151 2.38676,-4.63195 0.4707,-6.19727 -0.9979,-0.76072 -2.66444,-1.35502 -3.7246,-0.39257 -1.00354,1.16466 0.20574,2.77366 1.56445,2.55664 1.40896,0.81972 -0.54526,2.4951 -1.1836,0.96093 -0.92352,-1.31941 -1.60517,-2.83939 -2.67382,-4.03906 -0.24411,-0.17947 -0.54246,-0.27451 -0.8418,-0.28125 z M 325.62305,286.875 c -0.68419,-0.0398 -1.37186,0.43417 -1.63672,1.0918 -0.77767,1.2216 -1.55623,2.44448 -2.33399,3.66601 -1.42568,0.83236 -1.93124,-1.5763 -0.3457,-1.48828 1.57175,0.0385 1.93289,-2.39058 0.45508,-2.84375 -2.45338,-0.71414 -4.96473,1.8405 -4.45899,4.28516 0.23135,1.33461 1.18399,2.5378 2.46094,3.01172 -0.60062,1.77585 -2.28911,-0.37668 -3.61523,-0.16797 -0.64526,-0.078 -1.29155,-0.1425 -1.9375,-0.21485 0.22548,3.59547 -0.12673,7.19535 -0.75391,10.73633 -0.37216,2.2982 -0.74305,4.59632 -1.11523,6.89453 4.83162,-7.59319 9.67196,-15.17394 14.49218,-22.77343 0.36816,-0.67539 0.11753,-1.5812 -0.54492,-1.97266 v -0.002 c -0.21149,-0.13978 -0.43795,-0.2094 -0.66601,-0.22266 z m 107.33007,1.00195 c -0.2798,-0.008 -0.56199,0.0598 -0.80664,0.21289 -0.88567,0.49384 -0.90485,1.72849 -0.28906,2.44532 0.72678,1.25252 1.45299,2.50524 2.17969,3.75781 0.0831,1.6488 -2.28617,0.9903 -1.47852,-0.37695 0.75722,-1.37787 -1.23409,-2.81646 -2.3164,-1.7129 -1.76286,1.84972 -0.64932,5.25586 1.7539,5.93165 1.29142,0.40862 2.79834,0.11491 3.80664,-0.80079 1.30038,1.35031 -1.38932,1.85957 -1.81445,3.13282 -0.3662,0.53701 -0.72061,1.08084 -1.08203,1.62109 3.29599,1.45416 6.33018,3.42334 9.18555,5.60938 1.86926,1.38785 3.73816,2.77426 5.60742,4.16211 -4.5187,-7.78346 -9.02124,-15.5675 -13.55078,-23.34376 -0.26891,-0.3985 -0.72894,-0.62509 -1.19532,-0.63867 z m -104.72265,0.6836 c -0.76142,0.0417 -1.44192,0.74534 -1.68945,1.48242 -4.39622,7.47427 -8.78238,14.95164 -13.17579,22.42969 3.53854,-2.54322 6.95228,-5.27204 10.66602,-7.56055 1.33537,-0.82047 2.76267,-1.46985 4.17969,-2.13281 -0.91651,-1.4621 -1.90892,-2.92521 -3.40235,-3.86133 0.31497,-0.67006 0.58774,-1.20271 1.18164,-0.43555 2.10226,1.4019 5.20857,-0.0141 5.7168,-2.43554 0.21627,-1.23602 -0.0209,-2.98981 -1.36328,-3.48829 -1.49578,-0.35513 -2.36863,1.4599 -1.55078,2.56641 -0.0796,1.62809 -2.46685,0.66324 -1.39844,-0.60938 0.74656,-1.42702 1.78399,-2.73161 2.35742,-4.23242 0.0941,-0.5986 -0.21526,-1.22893 -0.74609,-1.52148 -0.2589,-0.15633 -0.52158,-0.21506 -0.77539,-0.20117 z m 148.29492,6.95898 -7.54101,7.86133 3.56054,1.23828 11.60938,11.14063 -22.75977,-4.47071 -7.01953,7.31055 4.05078,1.41992 18.58008,17.83008 1.33008,3.26953 7.48828,-7.80859 -3.94922,-1.41993 -11.50977,-11.05078 22.85938,4.56055 5.78125,-6.03125 -21,-20.14844 z m -95.14844,1.13867 c -1.3221,0.004 -2.01362,1.90242 -0.66211,2.57813 1.41556,0.82461 2.90113,-1.36833 1.56641,-2.3418 -0.18648,-0.12715 -0.40927,-0.1933 -0.63281,-0.21094 -0.0933,-0.0175 -0.18335,-0.0257 -0.27149,-0.0254 z m 2.81641,0.0254 c -1.71666,0.0833 -1.3442,2.88927 0.30664,2.70508 1.55307,0.0651 1.89538,-2.44454 0.27344,-2.65039 -0.18882,-0.0491 -0.38535,-0.0701 -0.58008,-0.0547 z m -101.4082,0.2461 -1.39063,3.64062 -17.57031,17.67969 -4.34961,1.66016 7.66992,7.61914 1.15039,-2.91016 6.75977,-6.79883 9.66992,9.59961 5.4707,-0.0703 8.83008,-8.88867 -0.0195,-5.41016 z m 161.03906,0.5 c 0.3448,-0.0108 0.14492,1.20909 -0.18164,0.0898 0.0727,-0.0622 0.13238,-0.0883 0.18164,-0.0898 z m -126.48047,0.6582 0.15625,0.0664 c -0.2857,0.91636 -0.54727,0.0229 -0.15625,-0.0664 z m 120.57422,2.89258 c 0.68217,0.67531 -0.23163,0.49559 -0.13086,0.10742 z m -56.61914,0.51758 c -1.01342,-0.0355 -1.66789,1.01138 -1.51172,1.94336 -0.0259,1.44788 -0.0521,2.89587 -0.0781,4.34375 -0.78178,1.45404 -2.46876,-0.33555 -1.07031,-1.08789 1.36078,-0.78751 0.40141,-3.04868 -1.0957,-2.66407 -2.4655,0.67113 -3.27551,4.1629 -1.56836,5.98438 0.89385,1.01773 2.33527,1.5453 3.67187,1.2832 0.4144,1.82827 -2.14941,0.87243 -3.17187,1.74219 -0.59117,0.27016 -1.17687,0.55272 -1.76563,0.82812 2.06856,2.94944 3.64611,6.20292 4.95899,9.55079 0.88185,2.15467 1.76463,4.31017 2.64648,6.46484 0.15901,-8.99864 0.33251,-17.99215 0.47852,-26.99024 -0.0384,-0.76825 -0.72471,-1.41025 -1.49414,-1.39843 z m 3.18555,0.002 c -1.2097,0.007 -1.66491,1.36639 -1.4336,2.37695 0.15034,8.67002 0.31015,17.33799 0.46484,26.00977 1.69131,-4.01606 3.1806,-8.12542 5.1543,-12.01563 0.71095,-1.39674 1.58836,-2.695 2.45117,-4 -1.54483,-0.76894 -3.15548,-1.49839 -4.91797,-1.51757 -0.081,-0.73597 -0.12572,-1.33278 0.78126,-0.98829 2.52489,0.0988 4.43555,-2.72977 3.60546,-5.06054 -0.46052,-1.16723 -1.57725,-2.53894 -2.98242,-2.26367 -1.46129,0.47764 -1.25941,2.48094 0.0156,2.99804 0.78179,1.43035 -1.75901,1.8541 -1.51172,0.21094 -0.10787,-1.60689 0.0967,-3.26231 -0.19727,-4.8418 -0.23215,-0.55974 -0.82423,-0.93566 -1.42968,-0.9082 z m -61.27735,0.14453 c 0.70962,0.2877 -0.96395,0.91987 0,0 z M 283.5957,309.211 h 0.67969 l 6.21875,6.17968 0.0508,0.72852 -2.75,2.77148 c -0.29,1e-5 -0.49047,-7.6e-4 -0.73047,-0.0508 l -6.21875,-6.17968 c -0.05,-0.24 0,-0.38969 0,-0.67969 z m 95.97461,6.30468 c 0.23449,0.93082 -0.455,0.30548 -0.16797,0.0254 z m 6.68946,0 c 0.75546,-0.12488 -0.34226,1.28774 0,0 z m -71.98438,9.6543 -0.13086,4.5 -10.67969,22.07031 -3.44922,2.89063 20.39844,9.86914 4.53125,-9.36914 -5.68945,0.28906 -6.90039,-3.33984 -0.2207,-0.64063 1.60937,-3.33007 0.66992,-0.28907 5.06055,2.44922 1.62109,2.31055 4.5293,-9.36914 -2.82031,0.1582 -5.04883,-2.44922 -0.2207,-0.64062 1.73046,-3.58008 0.66993,-0.2793 6.77929,3.2793 3.40039,4.77148 4.56055,-9.43164 z m 126.75,1.66992 -20.33008,10.01954 3.46875,2.87109 10.83008,21.99023 0.16016,4.5 20.33008,-10.02148 -4.59961,-9.33984 -3.26954,4.66992 -6.88085,3.39062 -0.63868,-0.2207 -1.63086,-3.31836 0.18946,-0.70117 5.04101,-2.48047 2.82031,0.14062 -4.60156,-9.33984 -1.60937,2.32031 -5.03907,2.48047 -0.64062,-0.2207 -1.75,-3.56055 0.18945,-0.69922 6.75977,-3.33008 5.85156,0.25 z m -91.53125,13.75 1.24024,3.66016 -2.89844,25.50977 -2.18164,3.41015 10.75,1.2207 -0.97852,-3.49023 0.97852,-8.64062 0.54101,-0.49024 6.11914,0.70117 1.94141,9.66016 -1.86133,3.0293 10.82031,1.23046 -0.25,-0.79101 -2.78906,-13.13867 3.33008,-2.5918 1.41992,-12.51953 -3.45117,-4.25 -17.2793,-1.95899 -3.82031,-0.36132 z m 55.21094,0.16993 -10.64063,1.93945 2.19141,3.2207 4.55859,25.06055 -0.91992,3.71875 10.64063,-1.93945 -2.16993,-3.15039 -4.56054,-25.0586 z m -46.32031,8.49023 8.71093,0.99023 c 0.18,0.23 0.30016,0.37961 0.41016,0.59961 l -0.44141,3.88086 -0.52929,0.41992 -8.71094,-0.99023 c -0.18,-0.23 -0.22992,-0.37125 -0.41992,-0.53125 l 0.4414,-3.87891 z"
   id="path16"
   inkscape:connector-curvature="0"
   inkscape:label="rest" />

<path
   style="display:inline;opacity:1;fill:#8eb9cc;fill-opacity:0.43478262"
   d="m 269.82031,106.12891 c -8.81324,-0.48539 -16.02744,7.22401 -17.29956,15.53195 -0.52749,1.90871 -0.53096,6.52127 -0.47814,6.76909 -0.63652,-7.7725 3.97328,-16.29852 11.94509,-18.08921 5.20581,-1.53929 11.96633,0.99716 13.08261,6.75478 1.38869,5.74062 -1.57968,12.26376 -7.26844,14.32567 -1.55684,1.08112 -7.7025,1.53281 -4.63882,1.48206 -6.33659,0.22633 -12.67528,0.88563 -19.01056,0.81155 -3.55966,0.55955 -5.62552,-4.97924 -7.74157,-0.87923 -4.16944,2.55278 -9.23984,1.67989 -13.88969,2.19891 -8.07051,0.20706 -16.21417,1.55639 -24.22686,0.0443 -5.72511,-1.12129 -11.07031,-4.17456 -14.80023,-8.67841 1.01041,4.96068 5.42607,8.21208 8.26196,12.16589 4.22031,5.00681 7.47242,11.19287 7.25253,17.89712 0.50957,10.38901 10.66966,18.69941 20.91918,17.62073 4.97947,-0.16325 9.96108,-0.73135 14.93923,-0.59776 3.5597,-0.55953 5.62571,4.97946 7.74157,0.87893 4.16889,-2.55541 9.23979,-1.68043 13.88984,-2.19771 5.42643,-0.17397 11.20614,-0.43847 15.63893,-4.02256 5.98843,-4.20772 8.72698,-11.81057 7.79726,-18.93066 -0.71958,-7.44459 0.30926,-14.87135 1.48279,-22.2143 1.16285,-7.40587 -1.17754,-16.48691 -8.60483,-19.71468 -1.57192,-0.69502 -3.27617,-1.08173 -4.99229,-1.15648 z m 8.74414,34.20117 c 0.11111,4.58522 0.76779,9.1856 0.44845,13.75982 -1.20434,6.35601 -8.0027,9.83751 -14.04736,9.60775 -5.74081,0.20036 -11.48372,0.81367 -17.2232,0.71637 -3.55966,0.55954 -5.62552,-4.97924 -7.74157,-0.87923 -4.16939,2.55366 -9.23991,1.67857 -13.88985,2.19588 -5.69193,0.0468 -11.88265,1.67159 -17.02075,-1.61659 -3.75603,-2.09184 -5.55233,-6.37519 -5.3482,-10.53534 -0.16204,-3.09981 -0.32407,-6.19963 -0.48611,-9.29944 10.344,-0.5101 20.6851,-1.15898 31.0314,-1.57272 2.74795,-0.6191 5.88997,2.61801 7.18596,2.4393 3.3481,-4.09878 9.03903,-3.11509 13.72705,-3.59009 7.78806,-0.40857 15.57612,-0.81714 23.36418,-1.22571 z"
   id="path67"
   inkscape:connector-curvature="0"
   inkscape:label="boatbody" />


















</svg>