<?xml version="1.0" encoding="utf-8"?>
<!-- Generator: Adobe Illustrator 24.2.3, SVG Export Plug-In . SVG Version: 6.00 Build 0)  -->
<svg version="1.1" id="logo" xmlns="http://www.w3.org/2000/svg" xmlns:xlink="http://www.w3.org/1999/xlink" x="0px" y="0px"
	 viewBox="0 0 841.89 595.28" style="enable-background:new 0 0 841.89 595.28;" xml:space="preserve">
<style type="text/css">
	.st0{opacity:0.71;}
	.st1{opacity:0.88;fill:#006E9D;}
	.st2{opacity:0.8;}
	.st3{opacity:0.8;fill:#006E9D;}
	.st4{opacity:0.88;}
	.st5{fill:#8EB9CC;stroke:#8EB9CC;stroke-width:0.17;stroke-miterlimit:10;}
	.st6{opacity:0.62;fill:#8EB9CC;}
	.st7{opacity:0.66;fill:#8EB9CC;}
	.st8{opacity:0.8;fill:#8EB9CC;}
	.st9{opacity:0.88;fill:#8EB9CC;}
	.st10{fill:none;}
	.st11{opacity:0.71;fill:#8EB9CC;}
	.st12{opacity:0.62;}
	.st13{fill:#8EB9CC;stroke:#8EB9CC;stroke-width:3;stroke-linecap:round;stroke-miterlimit:10;}
	.st14{fill:#8EB9CC;stroke:#8EB9CC;stroke-width:0;stroke-miterlimit:10;}
</style>
<g class="st0">
	<path class="st1" d="M458.9,235.63c0,2.2-0.46,4.29-1.16,6.15c-4.18,13.69-18.56,21.34-34.1,21.34
		c-13.11-0.23-21.81-8.93-21.81-18.21c0-4.87,1.86-11.83,11.02-14.85c-17.17,6.61-9.86,29.58,8.58,29.58
		c8.47,0,15.66-2.78,20.76-6.38c-0.93,0.12-1.74,0.12-2.67,0.12c-9.51,0-17.4-6.84-19.02-15.89c-0.23-1.16-0.35-2.32-0.35-3.6v-1.97
		c0,0-0.23-5.92-3.48-7.54c5.57,0,8.12,4.52,15.08,4.52c-3.71,2.78-3.48,8.47-3.48,8.47v0.12c0,7.19,5.1,12.99,11.25,12.99
		c6.26,0,11.37-5.92,11.37-13.11c0-6.84-4.18-12.3-8.93-16.94c-1.04-0.93-4.41-3.13-7.54-2.09c0.81-3.83-3.36-7.54-3.36-7.54h0.12
		c-6.84-6.15-10.79-12.3-10.79-20.88c0-0.35,0.12-0.7,0.12-1.04c-0.23-4.06-2.2-13.69-13.11-13.69c-14.5,0-13.34,25.75,8.58,25.75
		c-27.49,0-29-31.9-5.22-31.9c9.05,0,15.78,6.03,24.24,3.71h-0.12c1.62-0.35,3.25-0.58,4.87-0.58c9.51,0,17.52,6.84,19.14,15.89
		c0.23,1.16,0.35,2.32,0.35,3.6v1.97c0,0,0.12,5.92,3.48,7.54c-5.57,0-8.12-4.52-15.08-4.52c3.71-2.78,3.48-8.47,3.48-8.47v-0.12
		c-0.12-7.19-5.1-12.99-11.37-12.99c-6.15,0-11.25,5.92-11.25,13.11c0,6.73,3.94,12.18,8.58,16.82c0.81,0.58,4.52,3.36,7.89,2.2
		c-0.7,3.25,1.97,6.26,3.02,7.31C454.96,220.78,458.9,226.93,458.9,235.63z"/>
</g>
<g class="st2">
	<path class="st3" d="M463.36,236.1c0,2.2-0.46,4.29-1.16,6.15c-4.18,13.69-18.56,21.34-34.1,21.34
		c-13.11-0.23-21.81-8.93-21.81-18.21c0-4.87,1.86-11.83,11.02-14.85c-17.17,6.61-9.86,29.58,8.58,29.58
		c8.47,0,15.66-2.78,20.76-6.38c-0.93,0.12-1.74,0.12-2.67,0.12c-9.51,0-17.4-6.84-19.02-15.89c-0.23-1.16-0.35-2.32-0.35-3.6v-1.97
		c0,0-0.23-5.92-3.48-7.54c5.57,0,8.12,4.52,15.08,4.52c-3.71,2.78-3.48,8.47-3.48,8.47v0.12c0,7.19,5.1,12.99,11.25,12.99
		c6.26,0,11.37-5.92,11.37-13.11c0-6.84-4.18-12.3-8.93-16.94c-1.04-0.93-4.41-3.13-7.54-2.09c0.81-3.83-3.36-7.54-3.36-7.54h0.12
		c-6.84-6.15-10.79-12.3-10.79-20.88c0-0.35,0.12-0.7,0.12-1.04c-0.23-4.06-2.2-13.69-13.11-13.69c-14.5,0-13.34,25.75,8.58,25.75
		c-27.49,0-29-31.9-5.22-31.9c9.05,0,15.78,6.03,24.24,3.71h-0.12c1.62-0.35,3.25-0.58,4.87-0.58c9.51,0,17.52,6.84,19.14,15.89
		c0.23,1.16,0.35,2.32,0.35,3.6v1.97c0,0,0.12,5.92,3.48,7.54c-5.57,0-8.12-4.52-15.08-4.52c3.71-2.78,3.48-8.47,3.48-8.47v-0.12
		c-0.12-7.19-5.1-12.99-11.37-12.99c-6.15,0-11.25,5.92-11.25,13.11c0,6.73,3.94,12.18,8.58,16.82c0.81,0.58,4.52,3.36,7.89,2.2
		c-0.7,3.25,1.97,6.26,3.02,7.31C459.42,221.25,463.36,227.4,463.36,236.1z"/>
</g>
<g id="ship_part" class="st4">
	<path class="st5" d="M297.19,190.03"/>
	<path class="st5" d="M301.2,179.24"/>
	<path class="st5" d="M288.42,180.01c0.41-0.02,0.81-0.04,1.22-0.06c0.2-0.01,0.46-0.03,0.67-0.04c0.29-0.01,0.57-0.02,0.86-0.03
		c0.22-0.01,0.45-0.02,0.67-0.02c0.27-0.01,0.53-0.02,0.8-0.03c0.31-0.01,0.61-0.02,0.92-0.03c0.35-0.01,0.7-0.02,1.04-0.04
		c0.31-0.01,0.61-0.02,0.92-0.03c0.35-0.01,0.7-0.02,1.04-0.04c0.41-0.01,0.82-0.03,1.23-0.04c0.35-0.01,0.7-0.02,1.04-0.04
		c0.33-0.01,0.65-0.02,0.98-0.03c0.45-0.02,0.9-0.03,1.35-0.05"/>
	<path class="st5" d="M280.98,176.37c0.35-0.14,0.73-0.22,1.11-0.23c-0.02-0.6-0.05-1.13-0.07-1.73c0.39-0.08,0.78-0.17,1.17-0.25
		c-0.08-0.14-0.09-0.32-0.03-0.48c-0.38,0.01-0.75,0.03-1.13,0.04c-0.04-0.16-0.05-0.32-0.03-0.48c0.35-0.02,0.69-0.06,1.03-0.13
		c-0.01-0.23-0.02-0.45-0.03-0.68c-0.3,0.09-0.61,0.08-0.91,0.17c-0.01-0.32-0.03-0.65-0.04-0.97c-1.02,0.19-2.06,0.23-3.08,0.14
		c0.01,0.38,0.02,0.76,0.03,1.14c-0.32-0.03-0.64-0.07-0.97-0.1c-0.03,0.2-0.02,0.41,0,0.61c0.35,0.03,0.71-0.02,1.03-0.16
		c0.01,0.18,0.01,0.37,0.02,0.55c-0.34,0.04-0.69,0.09-1.03,0.13c0.06,0.17,0.09,0.35,0.08,0.53c0.22,0,0.5-0.02,0.73-0.02
		c0.03,0.58,0.05,1.15,0.07,1.73c0.33-0.01,0.7,0.04,1.03,0.03c0.09,0,0.12,0.03,0.2,0.08c0.02,0.86,0.06,1.75,0.1,2.61
		c0.02,0.47,0.06,0.95,0.08,1.42c-0.42,0.01-0.87,0.06-1.29,0.08c-0.35,0.01-0.7,0.02-1.06,0.04c0.01,0.23,0.02,0.46,0.02,0.69
		c-0.39,0-0.77,0.02-1.16,0.02c0,0.13,0.01,0.25,0.01,0.38c-0.26,0.01-0.53,0.02-0.79,0.03"/>
	<path class="st5" d="M233.28,209.07c4.04-2.19,8.22-4.13,12.39-6.06c0.87-0.4,1.73-0.8,2.6-1.21c-0.32-0.35-0.89-0.55-1.3-0.79
		c-0.75-0.43-1.5-0.85-2.25-1.28c2.94-1.49,5.79-3.2,8.57-4.98c-0.05-0.87-0.13-1.8-0.18-2.67c-0.23,0.01-0.47,0.02-0.7,0.02
		c-0.01-0.35-0.02-0.7-0.04-1.05c1.51-0.91,2.94-1.78,4.39-2.77c-0.06-1.12-0.17-2.28,0-3.39c0.45-0.02,0.89-0.03,1.34-0.05
		c0.42-1.33,0.89-2.65,1.39-3.96c-0.56,0.03-1.09,0.06-1.65,0.1c0.01,0.35,0.03,0.73,0.04,1.08c-0.21,0.01-0.41,0.01-0.62,0.02
		c-0.01-0.37-0.03-0.74-0.04-1.11c-0.74,0.03-1.49,0.05-2.23,0.08c0.03,0.43,0.03,0.74,0.02,1.17c-0.18,0.01-0.35,0.02-0.53,0.03
		c0.01,0.33,0.01,0.65,0.02,0.98c-0.16,0.01-0.32,0.01-0.48,0.02c-0.01-0.27-0.02-0.53-0.04-0.8c-0.18,0.1-0.54-0.05-0.64-0.22
		c-0.1-0.17-0.11-0.39-0.11-0.59c-0.01-0.75-0.01-1.5-0.02-2.25c0.27-0.01,0.51-0.02,0.78-0.03c0,0.6,0.02,1.2,0.02,1.79
		c0,0.04,0,0.08,0.03,0.11c0.04,0.05,0.13,0.02,0.17-0.03c0.04-0.05,0.03-0.12,0.03-0.19c-0.01-0.35-0.02-0.7-0.03-1.06
		c1.65-0.09,3.3-0.25,4.93-0.47c-0.01-0.25-0.02-0.47-0.03-0.72c0.23-0.01,0.45-0.01,0.68-0.02c0-0.24,0-0.48-0.01-0.73
		c0.44,0.17,0.93,0.16,1.4,0.16c0.19,0,0.38-0.01,0.53-0.12c0.15-0.11,0.21-0.36,0.06-0.48c0.74,0.02,1.48,0.03,2.23,0.05
		c0.06,0,0.12,0,0.16-0.04c0.05-0.05,0.04-0.14,0.08-0.19c0.04-0.05,0.11-0.06,0.18-0.06c0.52-0.02,1.05-0.04,1.57-0.06
		c0.85-3.89,1.64-7.84,2.24-11.78c0.05-0.33-0.07-0.64-0.08-0.97c-0.69-0.86-1.38-1.67-2.07-2.53c-1.47-1.86-2.95-3.72-4.27-5.69
		c-0.38,0.57-0.59,1.28-0.74,1.95c-0.13,0.59-0.17,1.19-0.21,1.79c-0.1,1.6-0.2,3.23,0.16,4.79c-0.87,0.46-1.58,1.18-2.04,2.04
		c-1.06-3.92-0.04-8.34,2.49-11.51c0.12-0.15,0.4-0.12,0.58-0.19c1.62,2.3,3.56,4.41,5.64,6.31c-0.05-1.3-0.11-2.58-0.15-3.88
		c-0.51-0.15-0.92-0.56-1-1.08c-0.24,0.04-0.51,0.06-0.76,0.1c0,0.14,0,0.28,0,0.42c-0.22,0.01-0.44,0.01-0.65,0.02
		c-0.08-0.51-0.13-1.02-0.13-1.53c0.18-0.01,0.36-0.01,0.54-0.02c0.01,0.18,0.03,0.36,0.04,0.54c0.32-0.01,0.63-0.01,0.95-0.02
		c0.06,0,0.12,0,0.16-0.04c0.05-0.04,0.05-0.12,0.05-0.19c-0.01-0.36-0.02-0.72-0.02-1.08c0.12-0.01,0.24-0.02,0.36-0.03
		c-0.05-0.13-0.05-0.29,0.03-0.41c0.08-0.12,0.26-0.16,0.37-0.07c0.02,0.24,0.03,0.48,0.05,0.72c0.33,0,0.65-0.04,0.97-0.11
		c-0.1-1.69-0.23-3.49-0.15-5.18c0-0.04,0.01-0.08,0.03-0.1c0.03-0.03,0.07-0.03,0.11-0.03c0.26-0.01,0.52-0.02,0.77-0.03
		c0.04,0,0.08,0,0.11,0.02c0.04,0.03,0.04,0.08,0.05,0.13c0.08,1.58,0.16,3.16,0.24,4.73c0.01,0.14-0.04,0.29-0.03,0.43
		c0.26-0.01,0.53-0.02,0.79-0.03c-0.09-0.6-0.12-1.22-0.1-1.83c0.3,0.03,0.61,0.04,0.91,0.01c0.01,0.19,0.01,0.37,0.02,0.56
		c0,0.04,0,0.09,0.03,0.12c0.03,0.04,0.09,0.04,0.14,0.04c1.39,0.02,2.78-0.03,4.17-0.16c-0.01,0.41-0.01,0.85-0.03,1.26
		c-0.7,0.03-1.4,0.05-2.1,0.08c-0.05,0.22-0.07,0.45-0.04,0.67c-0.61,0.1-1.23,0.14-1.85,0.14c0,0.12,0.01,0.24,0.01,0.37
		c-0.2,0.01-0.4,0.03-0.6,0.04c0,0.12,0,0.24-0.01,0.35c-0.32,0.02-0.64,0.04-0.96,0.05c0,2.31,0.12,4.62,0.36,6.92
		c0.43-0.06,0.84-0.11,1.27-0.17c-0.01,0.32,0.03,0.63,0.1,0.94c0.81-0.04,1.61-0.13,2.41-0.25c0.04,0.42,0.65,0.45,1.06,0.35
		c0.01,0.19,0.02,0.37,0.03,0.56c-0.53,0.02-1.06,0.05-1.59,0.07c0.02,0.18,0.04,0.36,0.06,0.53c-0.4,0.04-0.81,0.09-1.21,0.13
		c0.01,0.17,0.01,0.34,0.02,0.51c2.92-0.28,5.84-0.44,8.77-0.48c-0.39,0.58-0.69,1.3-0.84,1.98c-0.93,0.03-1.87,0.06-2.8,0.09
		c0.01,0.43,0.02,0.86,0.04,1.29c-0.26,0.01-0.52,0.02-0.79,0.03c-0.01-0.14-0.02-0.28-0.03-0.42c-0.86,0.08-1.71,0.16-2.57,0.24
		c0.05,0.29,0.11,0.59,0.16,0.88c0.14,0,0.27-0.01,0.41-0.01c-0.01-0.14-0.02-0.27-0.03-0.41c0.03-0.09,0.19-0.05,0.23,0.04
		c0.04,0.09,0.03,0.2,0.08,0.28c0.11,0.2,0.4,0.13,0.63,0.12c0.23-0.01,0.51,0.25,0.33,0.39c-0.22,0.01-0.43,0.05-0.64,0.12
		c-0.03,0.11-0.01,0.24,0.05,0.34c-0.32-0.04-0.65-0.03-0.97,0.01c0,0.14,0.01,0.28,0.01,0.41c0.63-0.02,1.27-0.03,1.9-0.05
		c0.01,0.22,0.02,0.44,0.02,0.66c-0.84,0.1-1.68,0.2-2.52,0.29c-0.04,0.14-0.08,0.28-0.12,0.42c-0.37-0.01-0.73,0.03-1.09,0.11
		c0,0.12,0,0.24-0.01,0.35c-0.01,0.54,0.05,1.09,0.07,1.62c0.35-0.02,0.7-0.03,1.05-0.05c-0.1-0.1-0.05-0.28,0.07-0.36
		c0.11-0.08,0.26-0.09,0.4-0.09c0.42-0.01,0.83-0.02,1.25-0.02c0.04,0,0.08,0,0.11,0.03c0.02,0.03,0.02,0.06,0.02,0.09
		c-0.01,0.14-0.03,0.28-0.04,0.42c0.33-0.01,0.66-0.01,0.98-0.02c0.01,0.2,0.01,0.4,0.02,0.6c-0.43,0-0.86,0.07-1.28,0.19
		c-0.02,0.29,0,0.59,0.07,0.87c-1.52,0.27-3.07,0.45-4.62,0.52c0.09,2.08,0.21,4.16,0.3,6.24c0.07,1.61,0.09,3.22,0.15,4.83
		c0.05,1.4,0.1,2.81,0.15,4.21c0.03,0.78,0.05,1.57,0.08,2.35c0.18-0.04,0.37-0.06,0.55-0.09c-0.02-0.22,0-0.45,0.06-0.66
		c0.18-0.01,0.36-0.02,0.54-0.04c0-0.16,0-0.32,0-0.48c0.16-0.01,0.32-0.02,0.49-0.03c-0.02-0.66-0.11-1.44-0.14-2.1
		c-0.04-1.03-0.07-2.06-0.11-3.09c-0.02-0.62-0.04-1.24-0.06-1.86c-0.03-0.74-0.04-1.49-0.12-2.23c-0.07-0.68-0.07-1.36-0.1-2.04
		c0.56-0.02,1.11-0.04,1.67-0.06c-0.01-0.29-0.02-0.57-0.02-0.86c0.18-0.01,0.36-0.03,0.54-0.04c0-0.22,0-0.44,0-0.67
		c0.18-0.03,0.36-0.06,0.54-0.09c0.01,0.24,0.03,0.49,0.04,0.73c0.2,0,0.4,0,0.61,0c0.01,0.33,0.03,0.65,0.04,0.98"/>
	<path class="st5" d="M278.54,192.43c-1.09,0.04-2.19,0.08-3.28,0.11c-0.04-1.28-0.09-2.56-0.13-3.84c1.07-0.04,2.08-0.07,3.16-0.11
		C278.35,189.92,278.48,191.11,278.54,192.43z"/>
	<path class="st5" d="M283.99,192.23c-1.09,0.04-2.19,0.08-3.28,0.11c-0.04-1.28-0.09-2.56-0.13-3.84c1.07-0.04,2.08-0.07,3.16-0.11
		C283.79,189.72,283.92,190.91,283.99,192.23z"/>
	<path class="st5" d="M289.44,192.05c-1.09,0.04-2.19,0.08-3.28,0.11c-0.04-1.28-0.09-2.56-0.13-3.84c1.07-0.04,2.08-0.07,3.16-0.11
		C289.24,189.54,289.37,190.73,289.44,192.05z"/>
	<path class="st5" d="M294.65,191.87c-1.09,0.04-2.19,0.08-3.28,0.11c-0.04-1.28-0.09-2.56-0.13-3.84c1.07-0.04,2.08-0.07,3.16-0.11
		C294.46,189.36,294.59,190.55,294.65,191.87z"/>
	<path class="st5" d="M265.91,177.43c0.06,1.72,0.12,3.44,0.18,5.16c0.06,1.81,0.13,3.63,0.19,5.44s0.13,3.62,0.19,5.44
		c0.06,1.62,0.11,3.25,0.17,4.88c0.06,1.69,0.12,3.38,0.18,5.06c0.03,0.94,0.07,1.88,0.1,2.81c0.02,0.62,0.04,1.25,0.07,1.88"/>
	<path class="st5" d="M258.19,184.74c0.84-0.03,1.69-0.06,2.53-0.09c0.94-0.03,1.88-0.07,2.81-0.1c0.81-0.03,1.63-0.06,2.44-0.09"/>
	<path class="st5" d="M256.81,188.35c1.12-0.04,2.25-0.08,3.38-0.12c0.91-0.03,1.81-0.06,2.72-0.09s1.81-0.06,2.72-0.09
		c0.19-0.01,0.38-0.01,0.56-0.02"/>
	<path class="st5" d="M253.37,194.67c0.91-0.03,1.81-0.06,2.72-0.09c0.84-0.03,1.69-0.06,2.53-0.09c0.91-0.03,1.81-0.06,2.72-0.09
		c0.84-0.03,1.69-0.06,2.53-0.09s1.69-0.06,2.53-0.09"/>
	<path class="st5" d="M300.05,205.37c-0.06-1.61-0.11-3.21-0.17-4.82c-0.09-2.52-0.18-5.04-0.26-7.57c0.97-1.33,1.98-2.65,2.96-3.98
		c0.5-0.68,1-1.46,1.44-2.18c0.29-0.01,0.57-0.02,0.86-0.03c-0.34-1.86-0.53-3.95-0.61-5.84c-0.02-0.44,0.03-0.89,0.27-1.26
		c0.1-0.16,0.4-0.4,0.56-0.5c-1.3,0.12-2.62,0.03-3.89-0.26c-0.07,0.22-0.08,0.46-0.03,0.69"/>
	<path class="st5" d="M288.36,180.04c-0.32,0.01-0.64,0.02-0.96,0.03c-0.51,0.02-1.01,0.04-1.52,0.05
		c-0.33,0.02-0.69,0.06-1.02,0.06c-0.36-0.01-0.73,0-1.09,0.02c-0.47,0.02-0.95,0.03-1.42,0.05c-0.44,0.02-0.88,0.03-1.32,0.05
		c-0.03-1.29-0.06-2.64-0.1-3.93"/>
</g>
<g class="st4">
	<path class="st6" d="M142.18,258.82c0.4,0.92,0.84,1.62,1.32,2.1c0.56,0.56,1.2,0.96,1.92,1.2h-15.84c-5.52,0-9.52-1.08-12-3.24
		c-2.48-2.16-3.72-5.2-3.72-9.12c0-1.76,0.44-3.36,1.32-4.8c0.64-1.2,1.72-2.3,3.24-3.3c1.52-1,3.68-1.5,6.48-1.5
		c-1.44,0.49-2.46,1.3-3.06,2.43c-0.6,1.13-0.88,2.25-0.84,3.34c0.04,1.09,0.38,2.06,1.02,2.91c0.64,0.85,1.52,1.27,2.64,1.27
		c1.2,0,2.32-0.36,3.36-1.08c1.04-0.72,1.56-2.09,1.56-4.09v-33.95c0-1.6-0.2-3.07-0.6-4.39c-0.4-1.32-0.84-2.47-1.32-3.43
		c-0.56-1.04-1.2-2.01-1.92-2.89c0.72,0.32,1.36,0.52,1.92,0.6c0.48,0.08,0.92,0,1.32-0.24c0.4-0.24,0.6-0.76,0.6-1.57V183.3
		c0-2.01-0.52-3.37-1.56-4.09c-1.04-0.72-2.16-1.08-3.36-1.08c-2.24,0-4.34,0.42-6.3,1.26c-1.96,0.84-3.66,2.02-5.1,3.54
		c-1.52,1.52-2.7,3.24-3.54,5.16c-0.84,1.92-1.26,4.04-1.26,6.36c0,2.24,0.42,4.34,1.26,6.3c0.84,1.96,2.02,3.66,3.54,5.1
		c0.72,0.72,1.56,1.44,2.52,2.16c0.96,0.72,1.94,1.32,2.94,1.8c1,0.48,2.02,0.8,3.06,0.96c1.04,0.16,2,0.12,2.88-0.12
		c0.24,1.28-0.3,2.56-1.62,3.84c-1.32,1.28-3.06,2.18-5.22,2.7c-2.16,0.52-4.54,0.5-7.14-0.06c-2.6-0.56-5.1-2.04-7.5-4.44
		c-2.08-2.48-3.72-5.26-4.92-8.34c-1.2-3.08-1.8-6.38-1.8-9.9c0-3.92,0.74-7.6,2.22-11.04c1.48-3.44,3.5-6.43,6.06-8.96
		c2.24-2.22,4.78-4.02,7.62-5.4c2.84-1.39,5.94-2.24,9.3-2.55c0.48-0.08,1.32-0.16,2.52-0.24c1.2-0.08,2.08-0.12,2.64-0.12h18.6
		c-0.72,0.24-1.36,0.64-1.92,1.2c-0.48,0.48-0.92,1.18-1.32,2.1c-0.4,0.92-0.6,2.14-0.6,3.66v82.08
		C141.58,256.68,141.78,257.9,142.18,258.82z"/>
	<path class="st6" d="M218.08,249.82c0.36,0.92,0.78,1.62,1.26,2.1s0.92,0.8,1.32,0.96c0.4,0.16,0.68,0.24,0.84,0.24h-9.96
		c-1.52,0-2.84-0.3-3.96-0.9c-1.12-0.6-2.04-1.3-2.76-2.1c-0.88-0.88-1.6-1.92-2.16-3.12l-21-44.04v43.2c0,1.52,0.18,2.74,0.54,3.66
		c0.36,0.92,0.76,1.62,1.2,2.1c0.44,0.48,0.86,0.8,1.26,0.96c0.4,0.16,0.68,0.24,0.84,0.24h-19.68c0.08,0,0.34-0.08,0.78-0.24
		c0.44-0.16,0.88-0.48,1.32-0.96c0.44-0.48,0.84-1.18,1.2-2.1c0.36-0.92,0.54-2.14,0.54-3.66v-3.96v-15V220c0-1.6-0.2-3.08-0.6-4.44
		c-0.4-1.36-0.84-2.48-1.32-3.36c-0.56-1.04-1.2-2-1.92-2.88c0.72,0.24,1.36,0.4,1.92,0.48c0.48,0.08,0.92,0.02,1.32-0.18
		c0.4-0.2,0.6-0.7,0.6-1.5v-26.04c0-1.52-0.18-2.74-0.54-3.66c-0.36-0.92-0.76-1.62-1.2-2.1c-0.44-0.48-0.88-0.8-1.32-0.96
		c-0.44-0.16-0.7-0.24-0.78-0.24h9.84c1.52,0,2.84,0.32,3.96,0.96c1.12,0.64,2.04,1.32,2.76,2.04c0.88,0.88,1.6,1.88,2.16,3
		l21,44.16v-43.2c0-1.52-0.18-2.74-0.54-3.66c-0.36-0.92-0.76-1.62-1.2-2.1c-0.44-0.48-0.88-0.8-1.32-0.96
		c-0.44-0.16-0.7-0.24-0.78-0.24h19.8c-0.16,0-0.44,0.08-0.84,0.24c-0.4,0.16-0.84,0.48-1.32,0.96s-0.9,1.18-1.26,2.1
		c-0.36,0.92-0.54,2.14-0.54,3.66v21.36v42.72C217.54,247.68,217.72,248.9,218.08,249.82z"/>
	<path class="st6" d="M380.97,175.12c-0.16,0-0.44,0.08-0.84,0.24c-0.4,0.16-0.82,0.48-1.26,0.96c-0.44,0.48-0.84,1.18-1.2,2.1
		c-0.36,0.92-0.54,2.14-0.54,3.66v12.72v6.24v28.08c0,3.36-0.64,6.5-1.92,9.42c-1.28,2.92-3,5.46-5.16,7.62
		c-2.16,2.16-4.68,3.86-7.56,5.1c-2.88,1.24-6,1.86-9.36,1.86c-3.36,0-6.48-0.62-9.36-1.86c-2.88-1.24-5.4-2.94-7.56-5.1
		s-3.88-4.7-5.16-7.62c-1.28-2.92-1.92-6.06-1.92-9.42V220c0-1.6-0.2-3.08-0.6-4.44c-0.4-1.36-0.84-2.48-1.32-3.36
		c-0.56-1.04-1.2-2-1.92-2.88c0.72,0.24,1.36,0.4,1.92,0.48c0.48,0.08,0.92,0.02,1.32-0.18c0.4-0.2,0.6-0.7,0.6-1.5v-7.08v-11.88
		v-7.08c0-1.52-0.18-2.74-0.54-3.66c-0.36-0.92-0.76-1.62-1.2-2.1c-0.44-0.48-0.88-0.8-1.32-0.96c-0.44-0.16-0.7-0.24-0.78-0.24
		h19.68c-0.16,0-0.44,0.08-0.84,0.24c-0.4,0.16-0.82,0.48-1.26,0.96c-0.44,0.48-0.84,1.18-1.2,2.1c-0.36,0.92-0.54,2.14-0.54,3.66
		v47.04c0,3.36,1.16,6.2,3.48,8.52c2.32,2.32,5.16,3.48,8.52,3.48c1.6,0,3.12-0.3,4.56-0.9s2.72-1.46,3.84-2.58
		c2.32-2.32,3.48-5.16,3.48-8.52l0.12-7.44V220c0-1.6-0.22-3.08-0.66-4.44c-0.44-1.36-0.9-2.48-1.38-3.36
		c-0.56-1.04-1.2-2-1.92-2.88c0.72,0.24,1.36,0.4,1.92,0.48c0.48,0.08,0.94,0.02,1.38-0.18c0.44-0.2,0.66-0.7,0.66-1.5
		c0-1.04-0.02-2.16-0.06-3.36c-0.04-1.2-0.06-2.48-0.06-3.84v-0.24v-6.12v-8.52h0.12v-3.96c0-1.52-0.18-2.74-0.54-3.66
		c-0.36-0.92-0.78-1.62-1.26-2.1s-0.94-0.8-1.38-0.96c-0.44-0.16-0.7-0.24-0.78-0.24H380.97z"/>
	<path class="st6" d="M534.57,175.12c-0.16,0-0.44,0.08-0.84,0.24c-0.4,0.16-0.82,0.48-1.26,0.96c-0.44,0.48-0.84,1.18-1.2,2.1
		c-0.36,0.92-0.54,2.14-0.54,3.66v8.76c-0.16-0.16-0.61-0.44-1.33-0.84c-0.73-0.4-1.63-0.82-2.72-1.26
		c-1.09-0.44-2.33-0.82-3.74-1.14c-1.41-0.32-2.88-0.48-4.41-0.48h-5.92v59.04c0,1.52,0.19,2.74,0.56,3.66
		c0.37,0.92,0.78,1.62,1.24,2.1c0.45,0.48,0.89,0.8,1.3,0.96c0.41,0.16,0.7,0.24,0.87,0.24h-19.8c0.08,0,0.34-0.08,0.78-0.24
		c0.44-0.16,0.88-0.48,1.32-0.96c0.44-0.48,0.84-1.18,1.2-2.1c0.36-0.92,0.54-2.14,0.54-3.66V220c0-1.6-0.2-3.06-0.6-4.38
		c-0.4-1.32-0.84-2.46-1.32-3.42c-0.56-1.04-1.2-2-1.92-2.88c0.74,0.32,1.4,0.52,1.98,0.6c0.49,0.08,0.95,0,1.36-0.24
		c0.41-0.24,0.62-0.76,0.62-1.56v-21h-5.92c-1.53,0-3,0.16-4.41,0.48c-1.41,0.32-2.66,0.7-3.74,1.14c-1.09,0.44-1.99,0.86-2.72,1.26
		c-0.73,0.4-1.17,0.68-1.33,0.84v-8.76c0-1.52-0.18-2.74-0.54-3.66c-0.36-0.92-0.76-1.62-1.2-2.1c-0.44-0.48-0.88-0.8-1.32-0.96
		c-0.44-0.16-0.7-0.24-0.78-0.24H534.57z"/>
	<path class="st6" d="M609.69,247.48c0,1.52-0.74,2.96-2.22,4.32c-1.48,1.36-3.26,2.32-5.34,2.88c-2.08,0.56-4.22,0.58-6.42,0.06
		c-2.2-0.52-4.02-1.86-5.46-4.02c-0.56-0.8-1.04-1.58-1.44-2.34c-0.4-0.76-0.8-1.54-1.2-2.34c-0.56-1.04-1.04-2.08-1.44-3.12
		c-0.4-1.04-0.8-2.04-1.2-3c-0.56-1.36-1.06-2.64-1.5-3.84c-0.44-1.2-0.9-2.28-1.38-3.24c-0.48-1.12-0.92-2-1.32-2.64
		c-0.48-0.72-0.76-1.08-0.84-1.08h-6.24v17.04c0,1.52,0.18,2.74,0.54,3.66c0.36,0.92,0.76,1.62,1.2,2.1
		c0.44,0.48,0.86,0.8,1.26,0.96c0.4,0.16,0.68,0.24,0.84,0.24h-19.68c0.08,0,0.34-0.08,0.78-0.24c0.44-0.16,0.88-0.48,1.32-0.96
		c0.44-0.48,0.84-1.18,1.2-2.1c0.36-0.92,0.54-2.14,0.54-3.66V220c0-1.6-0.2-3.08-0.6-4.44c-0.4-1.36-0.84-2.48-1.32-3.36
		c-0.56-1.04-1.2-2-1.92-2.88c0.72,0.24,1.36,0.4,1.92,0.48c0.48,0.08,0.92,0.02,1.32-0.18c0.4-0.2,0.6-0.7,0.6-1.5v-26.04
		c0-1.52-0.18-2.74-0.54-3.66c-0.36-0.92-0.76-1.62-1.2-2.1c-0.44-0.48-0.88-0.8-1.32-0.96c-0.44-0.16-0.7-0.24-0.78-0.24h24.84
		c3.76,0,7.26,0.7,10.5,2.1c3.24,1.4,6.1,3.34,8.58,5.82c2.48,2.48,4.42,5.34,5.82,8.58c1.4,3.24,2.1,6.74,2.1,10.5
		c0,3.76-0.7,7.28-2.1,10.56c-1.4,3.28-3.34,6.12-5.82,8.52c-2.48,2.48-5.48,4.48-9,6c0.08,0.16,0.16,0.34,0.24,0.54
		c0.08,0.2,0.16,0.38,0.24,0.54c0.4,0.8,0.74,1.58,1.02,2.34c0.28,0.76,0.58,1.58,0.9,2.46c0.4,1.12,0.8,2.18,1.2,3.18
		c0.4,1,0.8,1.98,1.2,2.94c1.2,2.48,2.38,4.38,3.54,5.7c1.16,1.32,2.28,2.26,3.36,2.82c1.08,0.56,2.06,0.78,2.94,0.66
		C608.29,248.26,609.05,247.96,609.69,247.48z M582.69,217.12c2.08,0,4.02-0.4,5.82-1.2c1.8-0.8,3.38-1.88,4.74-3.24
		c1.36-1.36,2.44-2.94,3.24-4.74c0.8-1.8,1.2-3.74,1.2-5.82c0-2.08-0.4-4.02-1.2-5.82c-0.8-1.8-1.88-3.38-3.24-4.74
		c-1.36-1.36-2.94-2.44-4.74-3.24c-1.8-0.8-3.74-1.2-5.82-1.2h-9v13.92v16.08H582.69z"/>
	<path class="st6" d="M649.47,249.82c0.36,0.92,0.76,1.62,1.2,2.1c0.44,0.48,0.86,0.8,1.26,0.96c0.4,0.16,0.68,0.24,0.84,0.24
		h-19.68c0.08,0,0.34-0.08,0.78-0.24c0.44-0.16,0.88-0.48,1.32-0.96c0.44-0.48,0.84-1.18,1.2-2.1c0.36-0.92,0.54-2.14,0.54-3.66V220
		c0-1.6-0.2-3.06-0.6-4.38c-0.4-1.32-0.84-2.46-1.32-3.42c-0.56-1.04-1.2-2-1.92-2.88c0.72,0.32,1.36,0.52,1.92,0.6
		c0.48,0.08,0.92,0,1.32-0.24c0.4-0.24,0.6-0.76,0.6-1.56v-26.04c0-1.52-0.18-2.74-0.54-3.66c-0.36-0.92-0.76-1.62-1.2-2.1
		c-0.44-0.48-0.88-0.8-1.32-0.96c-0.44-0.16-0.7-0.24-0.78-0.24h19.68c-0.16,0-0.44,0.08-0.84,0.24c-0.4,0.16-0.82,0.48-1.26,0.96
		c-0.44,0.48-0.84,1.18-1.2,2.1c-0.36,0.92-0.54,2.14-0.54,3.66v64.08C648.93,247.68,649.11,248.9,649.47,249.82z"/>
	<path class="st6" d="M712.17,252.88c0.56-0.24,1.14-0.8,1.74-1.68c0.6-0.88,0.66-2.36,0.18-4.44l-0.24-0.96l-2.28-9.72h-15.72
		l-2.28,9.72l-0.24,0.96c-0.4,1.84-0.36,3.22,0.12,4.14c0.48,0.92,1,1.54,1.56,1.86c0.32,0.24,0.6,0.36,0.84,0.36h-19.68
		c0.08,0,0.3-0.08,0.66-0.24c0.36-0.16,0.78-0.42,1.26-0.78c0.48-0.36,0.96-0.86,1.44-1.5c0.48-0.64,0.88-1.48,1.2-2.52
		c0.56-2.64,1.2-5.44,1.92-8.4c0.64-2.56,1.34-5.48,2.1-8.76c0.76-3.28,1.58-6.72,2.46-10.32c0.4-1.6,0.54-3.08,0.42-4.44
		c-0.12-1.36-0.3-2.56-0.54-3.6c-0.32-1.2-0.72-2.28-1.2-3.24c0.56,0.48,1.12,0.8,1.68,0.96c0.4,0.16,0.84,0.18,1.32,0.06
		c0.48-0.12,0.8-0.54,0.96-1.26c0.72-3.12,1.42-6.08,2.1-8.88c0.68-2.8,1.26-5.28,1.74-7.44c0.56-2.48,1.12-4.8,1.68-6.96
		c0.32-1.52,0.34-2.94,0.06-4.26c-0.28-1.32-0.7-2.46-1.26-3.42c-0.56-0.96-1.12-1.7-1.68-2.22c-0.56-0.52-0.88-0.78-0.96-0.78
		h24.48c-0.16,0-0.5,0.26-1.02,0.78c-0.52,0.52-1.06,1.26-1.62,2.22c-0.56,0.96-1,2.1-1.32,3.42c-0.32,1.32-0.32,2.74,0,4.26
		c0.56,2.16,1.12,4.48,1.68,6.96c0.48,2.16,1.04,4.64,1.68,7.44c0.64,2.8,1.36,5.76,2.16,8.88c0.16,0.72,0.32,1.42,0.48,2.1
		c0.16,0.68,0.34,1.46,0.54,2.34c0.2,0.88,0.42,1.88,0.66,3c0.24,1.12,0.56,2.48,0.96,4.08c0.88,3.6,1.68,7.04,2.4,10.32
		c0.72,3.28,1.4,6.2,2.04,8.76c0.72,2.96,1.4,5.76,2.04,8.4c0.32,1.04,0.72,1.88,1.2,2.52c0.48,0.64,0.96,1.14,1.44,1.5
		c0.48,0.36,0.9,0.62,1.26,0.78c0.36,0.16,0.58,0.24,0.66,0.24h-19.68C711.81,253.12,712.01,253.04,712.17,252.88z M708.81,224.08
		l-5.04-21.36l-5.04,21.36H708.81z"/>
	<path class="st7" d="M365.79,341.12h-12.16l1.6-2.88v-32.72l-1.52-2.72h10.48v35.44L365.79,341.12z"/>
	<path class="st7" d="M408.27,302.8l4.48,4.48v29.36l-4.48,4.48h-20.4l-4.48-4.48v-7.52h10.48l-1.52,2.8v0.24h10.8l0.64-0.56v-4.8
		l-0.64-0.64h-15.28l-4.48-4.48v-14.4l4.48-4.48H408.27z M403.79,312.32c-0.24-0.16-0.4-0.32-0.64-0.56h-10.16
		c-0.24,0.24-0.4,0.4-0.64,0.56v4.32l0.64,0.56h10.16l0.64-0.8V312.32z"/>
	<path class="st7" d="M441.71,341.12h-12.16l1.6-2.88v-32.72l-1.52-2.72h10.48v35.44L441.71,341.12z"/>
	<path class="st7" d="M471.47,341.12h-12.16l1.6-2.88v-32.72l-1.52-2.72h10.48v35.44L471.47,341.12z"/>
</g>
<g class="st0">
	<path class="st8" d="M276.56,253.03c-2.15-3.37-7.71-3.08-7.71-3.08l-13.55,0.71c-10.54,0.55-19.54-7.11-20.43-17.51l-0.13-2.55
		c-0.67-12.86-15.07-21.51-15.39-27.65c7.8,9.23,18.51,9.72,25.81,9.33l21.66-1.14c0,0,5.56-0.29,7.35-3.87
		c2.15,3.37,7.71,3.08,7.71,3.08l17.38-0.91c-0.58,0.03-1.05-0.06-1.63-0.03c3.59-0.19,14.16-2.37,13.56-13.84
		c-0.76-14.48-26.41-11.97-25.27,9.92c-1.44-27.45,30.34-30.63,31.58-6.88c0.33,6.37-2.42,13.6-1.9,23.56
		c-0.02-0.35-0.03-0.58-0.04-0.81l0.38,7.3c0.2,10.44-7.94,19.23-18.48,19.79l-13.55,0.71
		C283.91,249.16,278.35,249.45,276.56,253.03z M300.51,240.16c7.18-0.38,12.83-5.55,12.51-11.81l-0.6-11.47l-30.12,1.58
		c0,0-5.56,0.29-7.35,3.87c-2.15-3.37-7.71-3.08-7.71-3.08l-19.35,1.01c-0.12,0.01-0.23,0.01-0.35,0.02l-10.43,0.55l0.6,11.47
		c0.33,6.25,6.49,10.81,13.67,10.43l17.03-0.89c0,0,5.56-0.29,7.35-3.87c2.15,3.37,7.71,3.08,7.71,3.08L300.51,240.16z"/>
</g>
<g class="st2">
	<path class="st9" d="M278.11,256.59c-2.15-3.37-7.71-3.08-7.71-3.08l-13.55,0.71c-10.54,0.55-19.54-7.11-20.43-17.51l-0.13-2.55
		c-0.67-12.86-15.07-21.51-15.39-27.65c7.8,9.23,18.51,9.72,25.81,9.33l21.66-1.14c0,0,5.56-0.29,7.35-3.87
		c2.15,3.37,7.71,3.08,7.71,3.08l17.38-0.91c-0.58,0.03-1.05-0.06-1.63-0.03c3.59-0.19,14.16-2.37,13.56-13.84
		c-0.76-14.48-26.41-11.97-25.27,9.92c-1.44-27.45,30.34-30.63,31.58-6.88c0.33,6.37-2.42,13.6-1.9,23.56
		c-0.02-0.35-0.03-0.58-0.04-0.81l0.38,7.3c0.2,10.44-7.94,19.23-18.48,19.79l-13.55,0.71C285.46,252.73,279.9,253.02,278.11,256.59
		z M302.06,243.72c7.18-0.38,12.83-5.55,12.51-11.81l-0.6-11.47l-30.12,1.58c0,0-5.56,0.29-7.35,3.87
		c-2.15-3.37-7.71-3.08-7.71-3.08l-19.35,1.01c-0.12,0.01-0.23,0.01-0.35,0.02l-10.43,0.55l0.6,11.47
		c0.33,6.25,6.49,10.81,13.67,10.43l17.03-0.89c0,0,5.56-0.29,7.35-3.87c2.15,3.37,7.71,3.08,7.71,3.08L302.06,243.72z"/>
</g>
<g>
	<circle class="st10" cx="413.31" cy="298.29" r="154.13"/>
	<path class="st11" d="M282.83,319.94l2.3-5.38l-0.72-7.5l-0.59-0.42l-3.95,0.38l-0.43,0.52l0.54,5.59l1.6,2.32l-10.36,0.99
		l1.13-2.58l-0.54-5.59l-0.59-0.42l-3.68,0.35l-0.43,0.52l0.73,7.63l3.2,4.71l-10.36,0.99l-2.16-22.56l4.27,1.45l24.4-2.34
		l3.91-2.23l2.16,22.56L282.83,319.94z"/>
	<path class="st11" d="M280.62,372.4l-1.5,3.27l-4.93-10.62l1.99,0.06l4.82-7.67l-8.97-1.27l-1.24,1.56l-4.96-10.68l3.49,1.02
		l16.14,2.24l8.35-13.39l1.73-3.75l4.93,10.62l-1.9-0.02l-4.85,7.76l8.88,1.24l1.27-1.65l4.96,10.68l-3.04-0.85l-16.5-2.38
		L280.62,372.4z"/>
	<path class="st11" d="M332.88,395.01l-8.83,8.89l-5.47,0.07l-9.67-9.6l-6.76,6.8l-1.15,2.91l-7.67-7.62l4.35-1.66l17.57-17.68
		l1.39-3.64l16.22,16.12L332.88,395.01z M324.4,392.67l-0.05-0.73l-6.22-6.18l-0.68,0l-2.75,2.77c0,0.29-0.05,0.44,0,0.68l6.22,6.18
		c0.24,0.05,0.44,0.05,0.73,0.05L324.4,392.67z"/>
	<path class="st11" d="M363.97,421.02l-3.4-4.77l-6.78-3.28l-0.67,0.28l-1.73,3.58l0.22,0.64l5.05,2.45l2.82-0.16l-4.53,9.37
		l-1.62-2.31l-5.06-2.45l-0.67,0.29l-1.61,3.33l0.22,0.64l6.9,3.34l5.69-0.29l-4.53,9.37l-20.4-9.87l3.45-2.89L348,406.22l0.13-4.5
		l20.4,9.87L363.97,421.02z"/>
	<path class="st11" d="M407.57,452.15l0.25,0.79l-10.82-1.23l1.86-3.03l-1.94-9.66l-6.12-0.7l-0.54,0.49l-0.98,8.64l0.98,3.49
		l-10.75-1.22l2.18-3.41l2.9-25.51l-1.24-3.66l1.63,0.19l3.82,0.36l17.28,1.96l3.45,4.25l-1.42,12.52l-3.33,2.59L407.57,452.15z
		 M401.36,427.39c-0.11-0.22-0.23-0.37-0.41-0.6l-8.71-0.99l-0.54,0.49l-0.44,3.88c0.19,0.16,0.24,0.3,0.42,0.53l8.71,0.99
		l0.53-0.42L401.36,427.39z"/>
	<path class="st11" d="M437.66,421.1l4.56,25.06l2.17,3.15l-10.64,1.94l0.92-3.72l-4.56-25.06l-2.19-3.22l10.64-1.94L437.66,421.1z"
		/>
	<path class="st11" d="M479.53,412.79l-5.85-0.25l-6.76,3.33l-0.19,0.7l1.75,3.56l0.64,0.22l5.04-2.48l1.61-2.32l4.6,9.34
		l-2.82-0.14l-5.04,2.48l-0.19,0.7l1.63,3.32l0.64,0.22l6.88-3.39l3.27-4.67l4.6,9.34l-20.33,10.02l-0.16-4.5l-10.83-21.99
		l-3.47-2.87l20.33-10.02L479.53,412.79z"/>
	<path class="st11" d="M502.84,379.93l7.54-7.86l1.48,3.7l21,20.15l-5.78,6.03l-22.86-4.56l11.51,11.05l3.95,1.42l-7.49,7.81
		l-1.33-3.27l-18.58-17.83l-4.05-1.42l7.02-7.31l22.76,4.47l-11.61-11.14L502.84,379.93z"/>
	<path class="st11" d="M527.31,340.28l5.04-2l7.67,3.32l-3.54,8.17l-1.96-2.19l-1.19-0.52c-0.27,0.11-0.45,0.18-0.66,0.31
		l-3.46,7.98c0.04,0.24,0.12,0.42,0.22,0.69l14.83,6.42l0.66-0.31l3.46-7.98l-0.22-0.69l-1.07-0.46l-3,0.04l3.54-8.17l7.54,3.26
		l2,5.04l-6.94,16.03l-5.04,2l-22.82-9.88l-2-5.04L527.31,340.28z"/>
	<path class="st11" d="M545.54,300l-3.21,4.9l-0.6,7.51l0.51,0.52l3.96,0.32l0.52-0.44l0.45-5.6l-1.17-2.57l10.38,0.83l-1.56,2.35
		l-0.45,5.6l0.51,0.52l3.69,0.29l0.52-0.44l0.61-7.65l-2.33-5.2l10.38,0.83l-1.8,22.6l-3.95-2.17l-24.44-1.94l-4.24,1.52l1.8-22.6
		L545.54,300z"/>
</g>
<g id="sw10" class="st12">
	<path class="st13" d="M323.42,321.85c0,0-0.23-2.08-1.75-3.87c-2.37,2.76-6.77,5.99-6.77,5.99l18.99-4.73"/>
	<path class="st14" d="M339.09,319.39c0.75-0.19,1.2-0.94,1.01-1.69c-0.19-0.75-0.94-1.2-1.69-1.01c-0.75,0.19-1.2,0.94-1.01,1.69
		C337.59,319.12,338.34,319.57,339.09,319.39"/>
	<path class="st13" d="M330.57,316.48c-0.56-0.58-1.41-0.86-2.25-0.65c-1.25,0.31-2.01,1.58-1.7,2.82c0.31,1.25,1.58,2.01,2.82,1.7"
		/>
	<path class="st13" d="M321.67,317.99"/>
</g>
<g id="sw9" class="st12">
	<path class="st13" d="M503.52,320.77c0,0,0.12-2.09,1.55-3.95c2.51,2.63,7.07,5.63,7.07,5.63l-19.21-3.73"/>
	<path class="st14" d="M487.74,319.13c-0.75-0.15-1.25-0.88-1.1-1.63c0.15-0.76,0.88-1.25,1.63-1.1c0.76,0.15,1.25,0.88,1.1,1.63
		C489.23,318.79,488.5,319.28,487.74,319.13"/>
	<path class="st13" d="M496.1,315.79c0.53-0.61,1.36-0.93,2.21-0.77c1.26,0.25,2.09,1.47,1.84,2.73c-0.25,1.26-1.47,2.09-2.73,1.84"
		/>
	<path class="st13" d="M505.07,316.82"/>
</g>
<g id="sw8" class="st12">
	<path class="st13" d="M475.45,373.31c0,0,1.56-1.39,3.89-1.7c-0.08,3.64,1.02,8.98,1.02,8.98l-10.95-16.22"/>
	<path class="st14" d="M465.46,361c-0.43-0.64-0.26-1.5,0.38-1.93c0.64-0.43,1.5-0.26,1.93,0.38c0.43,0.64,0.26,1.5-0.38,1.93
		C466.75,361.8,465.89,361.63,465.46,361"/>
	<path class="st13" d="M473.73,364.54c0.81-0.06,1.62,0.3,2.11,1.02c0.72,1.07,0.44,2.51-0.63,3.23s-2.51,0.44-3.23-0.63"/>
	<path class="st13" d="M479.34,371.61"/>
</g>
<g id="sw7" class="st12">
	<path class="st13" d="M353.73,373.85c0,0-1.56-1.39-3.89-1.7c0.08,3.64-1.02,8.98-1.02,8.98l10.95-16.22"/>
	<path class="st14" d="M363.73,361.54c0.43-0.64,0.26-1.5-0.38-1.93c-0.64-0.43-1.5-0.26-1.93,0.38s-0.26,1.5,0.38,1.93
		C362.43,362.34,363.3,362.17,363.73,361.54"/>
	<path class="st13" d="M355.45,365.08c-0.81-0.06-1.62,0.3-2.11,1.02c-0.72,1.07-0.44,2.51,0.63,3.23c1.07,0.72,2.51,0.44,3.23-0.63
		"/>
	<path class="st13" d="M349.84,372.15"/>
</g>
<g id="sw6" class="st12">
	<path class="st13" d="M414.96,390.35c0,0-2.07-0.32-4.19,0.69c2.05,3.01,4.03,8.09,4.03,8.09l0.35-19.56"/>
	<path class="st14" d="M416.64,374.58c0.01-0.77-0.6-1.4-1.37-1.42s-1.4,0.6-1.42,1.37c-0.01,0.77,0.6,1.4,1.37,1.42
		C415.99,375.96,416.62,375.34,416.64,374.58"/>
	<path class="st13" d="M411.63,382.05c-0.71,0.39-1.2,1.14-1.21,2c-0.02,1.29,1,2.35,2.29,2.37c1.29,0.02,2.35-1,2.37-2.29"/>
	<path class="st13" d="M410.77,391.04"/>
</g>
<g id="sw5" class="st12">
	<path class="st13" d="M418.58,390.35c0,0,2.07-0.32,4.19,0.69c-2.05,3.01-4.03,8.09-4.03,8.09l-0.35-19.56"/>
	<path class="st14" d="M416.91,374.58c-0.01-0.77,0.6-1.4,1.37-1.42s1.4,0.6,1.42,1.37c0.01,0.77-0.6,1.4-1.37,1.42
		C417.56,375.96,416.92,375.34,416.91,374.58"/>
	<path class="st13" d="M421.92,382.05c0.71,0.39,1.2,1.14,1.21,2c0.02,1.29-1,2.35-2.29,2.37s-2.35-1-2.37-2.29"/>
	<path class="st13" d="M422.77,391.04"/>
</g>
<g id="sw4" class="st12">
	<path class="st13" d="M356.55,375.81c0,0,1.91,0.86,3.14,2.86c-3.36,1.4-7.79,4.59-7.79,4.59l10.36-16.6"/>
	<path class="st14" d="M363.74,361.67c0.41-0.65,1.27-0.85,1.92-0.44c0.65,0.41,0.85,1.27,0.44,1.92c-0.41,0.65-1.27,0.85-1.92,0.44
		S363.33,362.32,363.74,361.67"/>
	<path class="st13" d="M363.87,370.67c0.38,0.71,0.38,1.6-0.08,2.34c-0.68,1.09-2.12,1.42-3.21,0.74c-1.09-0.68-1.42-2.12-0.74-3.21
		"/>
	<path class="st13" d="M359.69,378.67"/>
</g>
<g id="sw3" class="st12">
	<path class="st13" d="M472.25,375.25c0,0-1.92,0.83-3.19,2.81c3.33,1.46,7.71,4.72,7.71,4.72L466.7,366"/>
	<path class="st14" d="M465.31,360.99c-0.4-0.66-1.25-0.87-1.91-0.48c-0.66,0.4-0.87,1.25-0.48,1.91c0.4,0.66,1.25,0.87,1.91,0.48
		S465.71,361.65,465.31,360.99"/>
	<path class="st13" d="M465.02,369.99c-0.4,0.71-0.41,1.6,0.03,2.34c0.66,1.1,2.09,1.46,3.2,0.8c1.1-0.66,1.46-2.09,0.8-3.2"/>
	<path class="st13" d="M469.06,378.06"/>
</g>
<g id="sw2" class="st12">
	<path class="st13" d="M324.73,325.06c0,0,0.84,1.92,0.42,4.23c-3.43-1.2-8.86-1.8-8.86-1.8l18.81-5.4"/>
	<path class="st14" d="M339.53,319.36c0.74-0.21,1.51,0.21,1.72,0.95c0.21,0.74-0.21,1.51-0.95,1.72c-0.74,0.21-1.51-0.21-1.72-0.95
		C338.37,320.35,338.79,319.58,339.53,319.36"/>
	<path class="st13" d="M333.61,326.14c-0.19,0.79-0.79,1.45-1.62,1.69c-1.24,0.36-2.53-0.36-2.88-1.6s0.36-2.53,1.6-2.88"/>
	<path class="st13" d="M325.15,329.29"/>
</g>
<g id="sw1" class="st12">
	<path class="st13" d="M502.69,323.86c0,0-0.74,1.96-0.2,4.24c3.37-1.38,8.75-2.26,8.75-2.26l-19.06-4.41"/>
	<path class="st14" d="M487.61,318.94c-0.75-0.17-1.5,0.29-1.67,1.04c-0.17,0.75,0.29,1.5,1.04,1.67s1.5-0.29,1.67-1.04
		C488.82,319.87,488.36,319.12,487.61,318.94"/>
	<path class="st13" d="M493.88,325.4c0.23,0.77,0.86,1.41,1.71,1.6c1.25,0.29,2.5-0.49,2.79-1.74s-0.49-2.5-1.74-2.79"/>
	<path class="st13" d="M502.49,328.1"/>
</g>
<g>
</g>
<g>
</g>
<g>
</g>
<g>
</g>
<g>
</g>
<g>
</g>
</svg>
